<svg width="450" height="450" viewBox="0 0 450 450" fill="none" xmlns="http://www.w3.org/2000/svg">
<path d="M217.494 425.997L159.921 426.348L163.683 369.135L211.284 369.099L217.494 425.997Z" fill="#EBEBEB"/>
<path d="M202.383 369.459C202.338 369.459 202.329 368.829 202.167 367.704C201.96 366.114 201.574 364.553 201.015 363.051C200.228 360.819 198.941 358.796 197.253 357.138C195.134 355.152 192.326 354.068 189.423 354.114C186.521 354.1 183.718 355.165 181.557 357.102C179.861 358.754 178.592 360.792 177.858 363.042C177.348 364.563 176.974 366.126 176.742 367.713C176.58 368.838 176.517 369.459 176.481 369.459C176.459 369.307 176.459 369.152 176.481 369C176.481 368.694 176.481 368.253 176.571 367.686C176.734 366.073 177.063 364.48 177.552 362.934C178.264 360.607 179.544 358.495 181.278 356.787C183.503 354.75 186.415 353.628 189.432 353.646C192.443 353.605 195.351 354.746 197.532 356.823C199.256 358.537 200.551 360.634 201.312 362.943C201.847 364.476 202.188 366.069 202.329 367.686C202.376 368.122 202.397 368.561 202.392 369C202.412 369.153 202.409 369.307 202.383 369.459Z" fill="#E0E0E0"/>
<path d="M174.114 369.459C174.249 369.459 173.808 382.194 173.142 397.881C172.476 413.568 171.837 426.285 171.702 426.276C171.567 426.267 172.008 413.55 172.674 397.854C173.34 382.158 173.988 369.45 174.114 369.459Z" fill="#E0E0E0"/>
<path d="M51.93 358.362C48.7937 356.387 45.2473 355.156 41.562 354.762C39.861 354.591 38.016 354.636 36.657 355.662C36.4993 355.753 36.3687 355.884 36.2786 356.042C36.1884 356.201 36.142 356.38 36.144 356.562C36.2269 356.818 36.3995 357.035 36.63 357.174C38.8316 358.745 41.4212 359.684 44.1181 359.888C46.815 360.093 49.5165 359.556 51.93 358.335" fill="#E0E0E0"/>
<path d="M51.66 358.065C49.2682 356.303 47.0393 354.33 45 352.17C42.9375 350.001 41.4872 347.324 40.797 344.412C40.6619 343.98 40.6216 343.524 40.6791 343.075C40.7366 342.626 40.8904 342.195 41.13 341.811C46.467 345.978 50.661 351.369 51.696 358.065" fill="#E0E0E0"/>
<path d="M51.876 358.317C51.3799 355.403 51.4195 352.423 51.993 349.524C52.5958 346.601 54.2761 344.011 56.7 342.27C57.6 344.43 57.222 346.914 56.574 349.164C55.5634 352.654 53.9951 355.958 51.93 358.947" fill="#E0E0E0"/>
<path d="M57.105 367.695C53.9623 368.2 51.0554 369.672 48.789 371.907C46.4058 374.077 44.7469 376.926 44.037 380.07C47.151 379.881 49.797 377.685 51.714 375.219C53.631 372.753 54.954 370.053 57.06 367.749" fill="#E0E0E0"/>
<path d="M58.2389 369.198C56.989 366.021 56.5516 362.583 56.9665 359.195C57.3814 355.806 58.6354 352.575 60.6149 349.794C62.4149 356.238 61.7579 363.51 58.2389 369.198Z" fill="#E0E0E0"/>
<path d="M65.1599 377.433C62.2551 377.249 59.3603 377.925 56.8375 379.377C54.3148 380.828 52.2759 382.992 50.9759 385.596C50.8049 385.947 50.6429 386.388 50.8769 386.703C50.9942 386.817 51.1369 386.902 51.2934 386.951C51.4498 386.999 51.6156 387.01 51.7769 386.982C54.5669 386.802 57.0509 385.119 59.0939 383.202C61.1369 381.285 62.9189 379.08 65.1779 377.424" fill="#E0E0E0"/>
<path d="M64.935 376.983C63.4503 372.19 63.3597 367.074 64.674 362.232C65.196 360.333 66.069 358.335 67.824 357.444C67.8932 357.397 67.9712 357.365 68.0532 357.35C68.1352 357.334 68.2196 357.336 68.301 357.354C68.4447 357.427 68.5544 357.553 68.607 357.705C69.1952 359.037 69.4515 360.491 69.354 361.944C69.2434 363.387 69.0208 364.819 68.688 366.228C68.13 368.847 67.842 371.628 66.402 373.914C66.0669 374.459 65.7663 375.024 65.502 375.606C65.223 376.182 65.223 376.38 64.98 376.839" fill="#E0E0E0"/>
<path d="M83.2409 379.71C82.6268 377.017 82.6066 374.223 83.1817 371.522C83.7568 368.821 84.9133 366.277 86.5709 364.068C86.8139 363.762 87.1289 363.42 87.5249 363.456C88.1189 363.519 88.2719 364.356 88.2449 364.914C88.0015 370.218 86.2671 375.347 83.2409 379.71Z" fill="#E0E0E0"/>
<path d="M84.8879 380.835C88.0902 381.591 91.4184 381.643 94.6426 380.987C97.8669 380.332 100.91 378.984 103.563 377.037C100.438 375.468 96.8661 375.033 93.4559 375.804C90.0935 376.411 87.0566 378.195 84.8879 380.835Z" fill="#E0E0E0"/>
<path d="M86.283 377.406C88.1363 374.553 90.6374 372.178 93.5823 370.475C96.5273 368.772 99.8329 367.789 103.23 367.605C102.772 368.95 102.044 370.188 101.09 371.241C100.137 372.295 98.9785 373.144 97.686 373.734C95.1074 374.893 92.382 375.692 89.586 376.11C88.506 376.326 87.021 376.551 86.319 377.406" fill="#E0E0E0"/>
<path d="M83.592 360.738C84.6521 357.521 85.376 354.204 85.752 350.838C86.1258 347.443 85.4372 344.015 83.781 341.028C82.1108 344.101 81.2119 347.534 81.1618 351.032C81.1116 354.53 81.9116 357.987 83.493 361.107" fill="#E0E0E0"/>
<path d="M94.626 355.158C98.46 348.192 106.326 342.621 114.201 341.847C111.15 349.443 102.816 355.347 94.626 355.158Z" fill="#E0E0E0"/>
<path d="M92.214 356.526C97.938 357.426 102.807 361.026 108.153 363.258C109.272 363.8 110.513 364.04 111.753 363.951C112.333 363.952 112.899 363.773 113.373 363.44C113.848 363.107 114.208 362.636 114.405 362.091C114.602 361.545 114.626 360.952 114.473 360.393C114.321 359.834 113.999 359.335 113.553 358.965C112.796 358.263 111.906 357.721 110.934 357.372C105.12 354.951 98.874 354.888 92.745 356.364" fill="#E0E0E0"/>
<path d="M88.911 360.531C90.198 360.909 90.639 361.575 91.665 362.448C95.1643 365.418 99.3 367.543 103.752 368.658C104.211 368.766 104.814 368.811 105.048 368.397C105.282 367.983 104.994 367.596 104.733 367.272C102.793 364.994 100.275 363.28 97.443 362.313C94.653 361.278 92.232 360.027 88.911 360.297" fill="#E0E0E0"/>
<path d="M85.176 336.312C87.5193 338.473 90.2888 340.121 93.3065 341.148C96.3243 342.176 99.5236 342.561 102.699 342.279C102.991 342.289 103.277 342.189 103.5 342C103.941 341.523 103.41 340.776 102.897 340.38C97.749 336.357 91.503 334.692 85.176 336.321" fill="#E0E0E0"/>
<path d="M89.604 334.692C92.7066 332.409 96.3057 330.892 100.107 330.266C103.908 329.641 107.803 329.924 111.474 331.092C108.619 333.76 104.946 335.384 101.052 335.7C97.2091 336.056 93.3334 335.73 89.604 334.737" fill="#E0E0E0"/>
<path d="M87.84 323.559C87.336 318.42 87.66 314.352 87.309 309.159C87.309 308.745 87.192 308.259 86.805 308.106C86.265 307.89 85.815 308.556 85.635 309.105C84.8867 311.501 84.6956 314.037 85.0762 316.519C85.4567 319 86.399 321.362 87.831 323.424" fill="#E0E0E0"/>
<path d="M87.471 324.126C90.832 321.957 93.7289 319.143 95.994 315.846C97.677 313.542 99.09 310.788 98.694 307.962C97.5085 307.99 96.3436 308.277 95.2814 308.804C94.2193 309.332 93.2858 310.086 92.547 311.013C91.0776 312.873 90.011 315.019 89.415 317.313C88.731 319.581 88.254 321.903 87.453 324.126" fill="#E0E0E0"/>
<path d="M95.841 321.804C103.513 318.966 110.615 314.778 116.811 309.438C114.309 308.43 111.411 309.033 108.936 310.041C103.252 312.195 98.5549 316.357 95.733 321.741" fill="#E0E0E0"/>
<path d="M89.8199 326.943C93.681 327.496 97.5999 327.514 101.466 326.997C105.218 326.224 108.866 325.016 112.338 323.397C112.645 323.31 112.909 323.111 113.076 322.839C113.119 322.679 113.118 322.511 113.072 322.352C113.026 322.194 112.937 322.051 112.815 321.939C112.551 321.73 112.243 321.582 111.915 321.507C108.031 320.577 103.959 320.821 100.215 322.209C96.6167 323.438 93.1569 325.039 89.8919 326.988" fill="#E0E0E0"/>
<path d="M67.716 336.492C66.4671 333.829 65.8017 330.929 65.7645 327.988C65.7272 325.046 66.3189 322.131 67.5 319.437C69.111 321.885 69.3 324.999 69.012 327.915C68.724 330.831 67.833 333.828 67.77 336.753" fill="#E0E0E0"/>
<path d="M57.168 331.2C53.8608 331.155 50.5808 331.802 47.5384 333.1C44.496 334.397 41.7583 336.316 39.501 338.733C42.8339 339.13 46.2086 338.502 49.176 336.933C52.1192 335.37 54.8964 333.512 57.465 331.389" fill="#E0E0E0"/>
<path d="M50.076 328.797C46.845 328.536 43.776 328.131 40.644 329.085C39.0751 329.521 37.6192 330.291 36.3764 331.343C35.1335 332.394 34.1331 333.703 33.444 335.178C36.4919 335.428 39.551 334.853 42.3 333.513C45.0279 332.172 47.6329 330.594 50.085 328.797" fill="#E0E0E0"/>
<path d="M60.579 328.905C57.672 326.997 54.693 325.062 51.318 324.279C47.943 323.496 44.019 324.072 41.661 326.619C44.361 328.221 47.718 328.419 50.886 328.419C54.054 328.419 57.951 328.419 60.939 329.436" fill="#E0E0E0"/>
<path d="M60.597 329.058C55.629 324.18 53.748 315.432 55.746 308.772C59.66 314.77 61.3743 321.938 60.597 329.058Z" fill="#E0E0E0"/>
<path d="M74.2319 315.252C75.1319 313.074 75.8339 310.752 76.6709 308.574C77.4204 306.321 78.5832 304.227 80.0999 302.4C81.6533 300.575 83.8601 299.431 86.2469 299.214C85.4845 302.571 84.0302 305.732 81.9768 308.495C79.9235 311.258 77.3163 313.563 74.3219 315.261" fill="#E0E0E0"/>
<path d="M71.766 318.123C70.218 315.999 68.427 313.101 66.366 311.508C65.3404 310.668 64.1438 310.062 62.8598 309.733C61.5758 309.403 60.2353 309.358 58.932 309.6C60.2604 311.924 62.1117 313.906 64.3394 315.39C66.5671 316.875 69.1098 317.819 71.766 318.15" fill="#E0E0E0"/>
<path d="M72.261 315.432C71.1507 312.889 70.3296 310.229 69.813 307.503C69.2922 304.74 69.7303 301.883 71.055 299.403C73.755 304.551 74.655 310.077 72.396 315.45" fill="#E0E0E0"/>
<path d="M74.259 299.439C75.807 294.3 80.478 290.583 85.5 288.9C86.124 288.646 86.7997 288.544 87.471 288.603C87.8087 288.635 88.1295 288.765 88.3936 288.978C88.6576 289.191 88.8532 289.477 88.956 289.8C89.136 290.7 88.416 291.447 87.741 292.023C83.7936 295.396 79.2001 297.928 74.241 299.466" fill="#E0E0E0"/>
<path d="M74.313 295.263C74.364 291.962 74.8605 288.684 75.789 285.516C76.86 282.402 78.921 279.477 81.927 278.109C82.431 281.439 80.964 284.742 79.227 287.604C77.49 290.466 75.33 293.166 74.259 296.352" fill="#E0E0E0"/>
<path d="M74.232 297.531C72.963 293.814 72.828 289.089 70.632 285.831C69.075 283.563 66.582 282.024 65.232 279.621C64.4225 281.922 64.5321 284.446 65.538 286.668C66.5546 288.863 67.9499 290.861 69.66 292.572C71.307 294.327 72.72 295.65 74.25 297.513" fill="#E0E0E0"/>
<path d="M74.259 407.07C74.16 407.07 74.079 382.257 74.07 351.657C74.061 321.057 74.142 296.235 74.232 296.235C74.322 296.235 74.421 321.048 74.43 351.657C74.439 382.266 74.358 407.07 74.259 407.07Z" fill="#E0E0E0"/>
<path d="M95.949 332.748C95.6574 332.883 95.3567 332.997 95.049 333.09L92.484 333.99C90.315 334.728 87.345 335.79 84.114 337.113C80.883 338.436 77.904 339.597 76.185 341.082C75.4993 341.656 74.9544 342.379 74.592 343.197C74.349 343.773 74.304 344.097 74.268 344.097C74.258 344.01 74.258 343.923 74.268 343.836C74.3061 343.591 74.3664 343.35 74.448 343.116C74.7719 342.248 75.307 341.475 76.005 340.866C77.0394 339.989 78.198 339.27 79.443 338.733C80.82 338.094 82.341 337.419 83.943 336.753C87.183 335.43 90.18 334.395 92.367 333.72C93.456 333.378 94.356 333.126 94.968 332.964C95.2868 332.859 95.6155 332.786 95.949 332.748Z" fill="#E0E0E0"/>
<path d="M103.05 315.288C102.973 315.39 102.886 315.484 102.789 315.567L101.997 316.314L99.0179 319.014L89.1179 327.825C85.2569 331.263 81.9179 334.548 79.6049 337.014C78.4529 338.256 77.5349 339.273 76.9049 339.993L76.1849 340.812C76.0229 340.992 75.9329 341.091 75.9149 341.082C75.9765 340.97 76.0488 340.865 76.1309 340.767C76.2839 340.569 76.4999 340.272 76.7969 339.867C77.3909 339.12 78.2729 338.067 79.4159 336.807C82.4115 333.574 85.5749 330.501 88.8929 327.6C92.7629 324.171 96.2909 321.093 98.8559 318.87L101.907 316.251L102.744 315.558C102.832 315.454 102.935 315.363 103.05 315.288Z" fill="#E0E0E0"/>
<path d="M84.96 331.317C84.861 331.272 85.662 329.409 86.472 327.051C87.282 324.693 87.66 322.713 87.768 322.731C87.6809 324.251 87.356 325.748 86.805 327.168C86.4654 328.184 86.0657 329.179 85.608 330.147C85.45 330.566 85.2317 330.961 84.96 331.317Z" fill="#E0E0E0"/>
<path d="M74.2859 346.338C74.0664 346.126 73.8675 345.894 73.6919 345.645L72.1619 343.692C70.8839 342.036 69.1109 339.75 67.1309 337.248C65.1509 334.746 63.3239 332.505 62.0009 330.885C61.3709 330.111 60.8489 329.463 60.4439 328.95C60.2416 328.724 60.0608 328.48 59.9039 328.221C60.1398 328.41 60.3541 328.624 60.5429 328.86C60.9479 329.292 61.5059 329.931 62.1899 330.723C63.5669 332.298 65.4209 334.521 67.4099 337.023C69.3989 339.525 71.1359 341.838 72.3689 343.539C72.9809 344.385 73.4759 345.078 73.7999 345.564C73.9878 345.805 74.1506 346.064 74.2859 346.338Z" fill="#E0E0E0"/>
<path d="M69.534 340.2C68.5633 339.152 67.8649 337.882 67.5 336.501C67.1276 335.287 66.9752 334.016 67.05 332.748H67.212C67.14 333.036 67.086 333.189 67.059 333.18C67.032 333.171 67.059 333.018 67.059 332.721H67.221C67.2953 333.959 67.5066 335.184 67.851 336.375C68.3149 337.691 68.8775 338.969 69.534 340.2Z" fill="#E0E0E0"/>
<path d="M63.396 332.514C62.9667 332.187 62.498 331.915 62.001 331.704C60.7501 331.33 59.4342 331.226 58.14 331.398C56.8293 331.499 55.5289 331.706 54.252 332.019C53.728 332.186 53.1926 332.316 52.65 332.406C53.1265 332.122 53.642 331.91 54.18 331.776C55.4596 331.385 56.7787 331.137 58.113 331.038C59.4574 330.856 60.8257 331.005 62.1 331.47C62.6385 331.66 63.0958 332.028 63.396 332.514Z" fill="#E0E0E0"/>
<path d="M61.938 330.642C61.938 330.696 61.128 330.318 59.805 329.868C56.355 328.681 52.6581 328.399 49.068 329.049C47.7 329.292 46.863 329.544 46.845 329.49C47.0203 329.38 47.2115 329.298 47.412 329.247C47.9388 329.063 48.4769 328.912 49.023 328.797C52.6496 327.999 56.431 328.287 59.895 329.625C60.4169 329.822 60.925 330.053 61.416 330.318C61.6051 330.4 61.781 330.509 61.938 330.642Z" fill="#E0E0E0"/>
<path d="M74.232 322.731C73.6096 320.963 73.0927 319.16 72.684 317.331C72.162 315.529 71.7591 313.695 71.478 311.841C72.1054 313.607 72.6224 315.411 73.026 317.241C73.5481 319.043 73.951 320.877 74.232 322.731Z" fill="#E0E0E0"/>
<path d="M74.331 322.731C73.8421 321.608 73.2674 320.525 72.612 319.491C71.8852 318.515 71.0351 317.638 70.083 316.881C70.4421 316.97 70.775 317.143 71.055 317.385C71.7719 317.914 72.3955 318.559 72.9 319.293C73.6728 320.292 74.1667 321.479 74.331 322.731Z" fill="#E0E0E0"/>
<path d="M74.2589 393.84C74.2589 393.84 74.1509 393.246 73.8719 392.193C73.4582 390.712 72.9037 389.275 72.2159 387.9C69.8233 383.41 66.8652 379.245 63.4139 375.507C61.4519 373.257 59.5439 371.142 57.9239 369.117C56.4721 367.334 55.1602 365.441 53.9999 363.456C53.2242 362.112 52.5619 360.707 52.0199 359.253C51.8399 358.74 51.7049 358.353 51.6329 358.056C51.5771 357.918 51.5437 357.772 51.5339 357.624C51.5339 357.624 51.7409 358.191 52.1549 359.208C52.7382 360.633 53.4303 362.011 54.2249 363.33C55.4086 365.283 56.7321 367.148 58.1849 368.91C59.8049 370.917 61.7129 373.023 63.6839 375.264C67.1554 379.022 70.1012 383.233 72.4409 387.783C73.1187 389.18 73.6437 390.647 74.0069 392.157C74.102 392.57 74.1741 392.987 74.2229 393.408C74.2549 393.55 74.267 393.695 74.2589 393.84Z" fill="#E0E0E0"/>
<path d="M93.852 371.7C93.5247 371.917 93.1818 372.11 92.826 372.276C91.8844 372.811 90.9821 373.413 90.126 374.076C88.8816 375.046 87.7141 376.112 86.634 377.262C85.401 378.567 84.141 380.07 82.845 381.681C80.271 384.921 77.85 387.783 76.41 390.078C75.672 391.212 75.141 392.166 74.79 392.832C74.6293 393.192 74.4397 393.538 74.223 393.867C74.2463 393.768 74.2795 393.671 74.322 393.579C74.394 393.39 74.502 393.12 74.664 392.778C75.115 391.802 75.626 390.856 76.194 389.943C78.1545 386.995 80.2819 384.161 82.566 381.456C83.862 379.845 85.14 378.333 86.391 377.037C87.5013 375.883 88.7054 374.824 89.991 373.869C90.8597 373.234 91.781 372.674 92.745 372.195C93.087 372.024 93.366 371.916 93.546 371.835L93.852 371.7Z" fill="#E0E0E0"/>
<path d="M94.239 378.9C93.5248 379.059 92.7998 379.164 92.07 379.215C90.326 379.392 88.6025 379.733 86.922 380.232C85.261 380.77 83.703 381.586 82.314 382.644C81.252 383.472 80.748 384.147 80.703 384.111C80.658 384.075 80.784 383.913 81.018 383.607C81.3548 383.185 81.7349 382.798 82.152 382.455C83.5267 381.308 85.1096 380.437 86.814 379.89C88.517 379.392 90.2714 379.09 92.043 378.99C92.7707 378.893 93.5058 378.863 94.239 378.9Z" fill="#E0E0E0"/>
<path d="M81.333 383.31C81.216 383.247 82.233 381.753 82.953 379.71C83.673 377.667 83.853 375.903 83.961 375.921C84.0266 376.305 84.0266 376.698 83.961 377.082C83.8586 378.018 83.6472 378.94 83.331 379.827C83.0014 380.709 82.579 381.554 82.071 382.347C81.8812 382.707 81.6317 383.033 81.333 383.31Z" fill="#E0E0E0"/>
<path d="M100.197 352.44C100.091 352.515 99.9764 352.575 99.8549 352.62L98.8379 353.088C98.3879 353.277 97.8479 353.52 97.2359 353.844C96.6239 354.168 95.9039 354.483 95.1569 354.933L93.9779 355.608C93.5639 355.842 93.1589 356.121 92.7269 356.391C91.8269 356.922 90.9809 357.57 90.0269 358.236C86.0287 361.213 82.542 364.821 79.7039 368.919C79.0739 369.882 78.4439 370.773 77.9039 371.619C77.6519 372.06 77.382 372.519 77.157 372.897L76.5269 374.103C76.1039 374.859 75.8069 375.588 75.5099 376.209C75.2129 376.83 74.9879 377.379 74.8079 377.838L74.4389 378.9C74.3974 379.024 74.3399 379.142 74.2679 379.251C74.2913 379.122 74.3275 378.995 74.3759 378.873L74.745 377.811C74.898 377.352 75.1049 376.794 75.3839 376.155C75.6629 375.516 75.9509 374.787 76.3649 374.013C76.5629 373.626 76.7699 373.212 76.9769 372.789C77.1839 372.366 77.4539 371.943 77.7059 371.493C78.2009 370.593 78.8219 369.693 79.4519 368.721C82.2752 364.554 85.791 360.901 89.8469 357.921C90.7469 357.255 91.6469 356.607 92.5469 356.121C92.9879 355.851 93.4469 355.581 93.8159 355.347L95.0219 354.69C95.7779 354.258 96.5069 353.943 97.1279 353.646C97.7489 353.349 98.3069 353.115 98.7569 352.935L99.8099 352.539C100.071 352.467 100.197 352.422 100.197 352.44Z" fill="#E0E0E0"/>
<path d="M84.6899 362.826C84.8508 362.32 85.1654 361.876 85.5899 361.557C86.5454 360.727 87.7623 360.258 89.0279 360.234C90.2628 360.235 91.4856 360.476 92.6279 360.945C93.1143 361.098 93.5752 361.323 93.9959 361.611C93.4998 361.508 93.0124 361.366 92.5379 361.188C91.4053 360.799 90.2165 360.598 89.0189 360.594C87.8322 360.62 86.6846 361.023 85.7429 361.746C85.3701 362.084 85.0184 362.445 84.6899 362.826Z" fill="#E0E0E0"/>
<path d="M82.377 365.22C82.8352 364.207 83.1618 363.139 83.349 362.043C83.4226 360.934 83.35 359.821 83.133 358.731C83.3348 358.996 83.4733 359.304 83.538 359.631C83.9586 361.229 83.7592 362.926 82.98 364.383C82.674 364.959 82.413 365.247 82.377 365.22Z" fill="#E0E0E0"/>
<path d="M57.1229 397.395C57.6629 406.881 60.5159 416.529 64.9079 426.276H84.0239C88.2179 416.619 90.8729 406.989 91.3499 397.395H57.1229Z" fill="#E0E0E0"/>
<path d="M88.2539 412.74C88.2539 412.839 81.9539 412.92 74.1959 412.92C66.4379 412.92 60.1379 412.839 60.1379 412.74C60.1379 412.641 66.4379 412.56 74.1959 412.56C81.9539 412.56 88.2539 412.641 88.2539 412.74Z" fill="#FAFAFA"/>
<path d="M87.822 416.178C87.822 416.277 81.927 416.358 74.646 416.358C67.365 416.358 61.47 416.277 61.47 416.178C61.47 416.079 67.374 415.998 74.646 415.998C81.918 415.998 87.822 416.079 87.822 416.178Z" fill="#FAFAFA"/>
<path d="M65.223 403.623C65.463 406.552 65.463 409.496 65.223 412.425C64.983 409.496 64.983 406.552 65.223 403.623Z" fill="#FAFAFA"/>
<path d="M75.456 403.623C75.696 406.657 75.696 409.706 75.456 412.74C75.228 409.705 75.228 406.658 75.456 403.623Z" fill="#FAFAFA"/>
<path d="M85.077 403.551C85.317 406.645 85.317 409.754 85.077 412.848C84.837 409.754 84.837 406.645 85.077 403.551Z" fill="#FAFAFA"/>
<path d="M90.738 403.623C90.738 403.722 83.358 403.803 74.259 403.803C65.16 403.803 57.771 403.722 57.771 403.623C57.771 403.524 65.151 403.443 74.259 403.443C83.367 403.443 90.738 403.524 90.738 403.623Z" fill="#FAFAFA"/>
<path d="M411.129 103.05H405.756V218.628H411.129V103.05Z" fill="#E0E0E0"/>
<path d="M404.856 103.95H327.852C327.807 103.95 327.771 103.986 327.771 104.031V218.718C327.771 218.763 327.807 218.799 327.852 218.799H404.856C404.901 218.799 404.937 218.763 404.937 218.718V104.031C404.937 103.986 404.901 103.95 404.856 103.95Z" fill="#F5F5F5"/>
<path d="M405.756 219.69H326.952C326.932 219.688 326.914 219.678 326.9 219.663C326.887 219.648 326.88 219.629 326.88 219.609V103.131C326.88 103.111 326.887 103.092 326.9 103.077C326.914 103.062 326.932 103.052 326.952 103.05H405.756C405.776 103.052 405.794 103.062 405.808 103.077C405.821 103.092 405.828 103.111 405.828 103.131V219.6C405.829 219.611 405.828 219.621 405.825 219.632C405.822 219.642 405.817 219.652 405.811 219.66C405.804 219.668 405.796 219.675 405.786 219.681C405.777 219.686 405.767 219.689 405.756 219.69ZM328.743 217.89H403.965C403.975 217.891 403.986 217.89 403.995 217.887C404.005 217.884 404.014 217.879 404.022 217.872C404.029 217.866 404.036 217.857 404.04 217.848C404.044 217.838 404.046 217.828 404.046 217.818V104.922C404.046 104.901 404.037 104.88 404.022 104.865C404.007 104.85 403.986 104.841 403.965 104.841H328.743C328.733 104.841 328.723 104.843 328.713 104.847C328.704 104.851 328.695 104.857 328.689 104.865C328.682 104.873 328.677 104.882 328.674 104.892C328.671 104.901 328.67 104.912 328.671 104.922V217.8C328.662 217.811 328.657 217.824 328.656 217.838C328.656 217.852 328.66 217.866 328.668 217.878C328.676 217.889 328.688 217.897 328.702 217.901C328.715 217.905 328.73 217.904 328.743 217.899V217.89Z" fill="#EBEBEB"/>
<path d="M397.215 111.033H335.619C335.574 111.033 335.538 111.069 335.538 111.114V211.554C335.538 211.599 335.574 211.635 335.619 211.635H397.215C397.26 211.635 397.296 211.599 397.296 211.554V111.114C397.296 111.069 397.26 111.033 397.215 111.033Z" fill="#FAFAFA"/>
<path d="M383.643 139.554H349.074C349.044 139.554 349.02 139.578 349.02 139.608V180.144C349.02 180.174 349.044 180.198 349.074 180.198H383.643C383.673 180.198 383.697 180.174 383.697 180.144V139.608C383.697 139.578 383.673 139.554 383.643 139.554Z" fill="#EBEBEB"/>
<path d="M380.952 175.221C380.997 175.356 379.278 176.121 376.029 175.725C374.026 175.467 372.122 174.705 370.494 173.511C368.273 171.864 366.741 169.453 366.192 166.743C365.871 165.049 366.006 163.301 366.583 161.677C367.16 160.052 368.159 158.611 369.477 157.5C370.222 156.88 371.064 156.388 371.97 156.042C372.966 155.671 374.038 155.548 375.093 155.682C376.251 155.795 377.344 156.27 378.216 157.041C378.698 157.496 379.061 158.062 379.274 158.689C379.488 159.317 379.545 159.987 379.44 160.641C379.199 161.831 378.603 162.92 377.73 163.764C376.958 164.526 376.078 165.172 375.12 165.681C373.207 166.754 371.073 167.37 368.883 167.481C366.571 167.607 364.27 167.083 362.241 165.969C360.147 164.801 358.446 163.037 357.354 160.902C356.219 158.721 355.9 156.206 356.454 153.81C357.001 151.493 358.318 149.431 360.189 147.96C361.127 147.239 362.193 146.702 363.33 146.376C364.482 146.07 365.689 146.033 366.858 146.268C368.094 146.501 369.22 147.134 370.062 148.068C370.868 149.025 371.311 150.236 371.313 151.488C371.327 152.632 371.038 153.759 370.476 154.755C369.963 155.656 369.296 156.461 368.505 157.131C367.069 158.337 365.394 159.226 363.591 159.741C361.915 160.232 360.156 160.366 358.425 160.137C356.813 159.917 355.273 159.328 353.925 158.418C352.766 157.655 351.783 156.653 351.043 155.48C350.303 154.307 349.821 152.988 349.632 151.614C349.396 149.536 349.962 147.447 351.216 145.773C351.968 144.736 352.989 143.924 354.168 143.424C354.978 143.118 355.437 143.127 355.455 143.208C355.473 143.289 355.086 143.496 354.429 143.937C353.495 144.577 352.714 145.416 352.143 146.394C351.255 147.894 350.936 149.664 351.243 151.38C351.475 152.487 351.933 153.533 352.59 154.453C353.247 155.373 354.088 156.147 355.059 156.726C356.24 157.416 357.557 157.841 358.918 157.97C360.28 158.099 361.654 157.929 362.943 157.473C364.396 157.011 365.738 156.254 366.885 155.25C367.439 154.804 367.888 154.241 368.199 153.602C368.51 152.962 368.676 152.262 368.685 151.551C368.67 150.903 368.423 150.282 367.989 149.801C367.554 149.32 366.961 149.012 366.318 148.932C365.564 148.793 364.788 148.83 364.05 149.04C363.273 149.277 362.547 149.655 361.908 150.156C360.556 151.251 359.606 152.764 359.208 154.458C358.812 156.199 359.048 158.023 359.874 159.606C360.706 161.238 362.002 162.588 363.6 163.485C365.17 164.348 366.949 164.763 368.739 164.682C370.504 164.61 372.231 164.139 373.788 163.305C374.52 162.922 375.198 162.444 375.804 161.883C376.298 161.439 376.652 160.86 376.821 160.218C376.872 159.978 376.861 159.728 376.788 159.494C376.716 159.259 376.585 159.047 376.407 158.877C375.942 158.465 375.36 158.207 374.742 158.139C374.081 158.04 373.405 158.099 372.771 158.31C372.12 158.541 371.511 158.879 370.971 159.309C369.925 160.139 369.117 161.23 368.627 162.472C368.137 163.714 367.983 165.063 368.181 166.383C368.552 168.664 369.723 170.738 371.484 172.233C372.853 173.374 374.467 174.184 376.2 174.6C379.161 175.311 380.925 174.978 380.952 175.221Z" fill="#E0E0E0"/>
<path d="M425.151 426.267C425.151 426.402 335.538 426.501 225.009 426.501C114.48 426.501 24.849 426.402 24.849 426.267C24.849 426.132 114.444 426.033 225.009 426.033C335.574 426.033 425.151 426.141 425.151 426.267Z" fill="#263238"/>
<path d="M411.417 56.205H326.601V66.357H411.417V56.205Z" fill="#455A64"/>
<path d="M397.935 55.908H343.935C342.648 55.908 341.415 55.3969 340.505 54.4872C339.595 53.5774 339.084 52.3436 339.084 51.057C339.083 50.4192 339.207 49.7874 339.451 49.1978C339.694 48.6082 340.051 48.0724 340.502 47.621C340.952 47.1696 341.487 46.8115 342.077 46.5671C342.666 46.3228 343.297 46.197 343.935 46.197H397.935C399.222 46.1994 400.456 46.7125 401.366 47.6236C402.275 48.5348 402.786 49.7696 402.786 51.057C402.784 52.3428 402.272 53.5753 401.363 54.4845C400.453 55.3938 399.221 55.9056 397.935 55.908Z" fill="#10BF80"/>
<path d="M343.107 55.8C343.496 55.2334 343.945 54.7113 344.448 54.243L345.996 52.659C346.305 52.3682 346.583 52.0454 346.824 51.696C346.946 51.535 347.029 51.3484 347.068 51.1504C347.107 50.9524 347.101 50.7481 347.049 50.553C346.891 50.163 346.596 49.8434 346.221 49.653C345.852 49.428 345.447 49.239 345.078 49.041L343.116 47.988C342.489 47.705 341.899 47.3452 341.361 46.917C342.021 47.1035 342.658 47.3632 343.26 47.691L345.267 48.6C345.645 48.789 346.041 48.96 346.455 49.203C346.94 49.4578 347.313 49.8847 347.499 50.4C347.57 50.6616 347.581 50.936 347.531 51.2024C347.481 51.4689 347.372 51.7207 347.211 51.939C346.949 52.3067 346.647 52.6447 346.311 52.947L344.7 54.441C344.222 54.953 343.688 55.409 343.107 55.8Z" fill="#263238"/>
<path d="M392.922 50.76C392.922 50.886 382.788 50.994 370.305 50.994C357.822 50.994 347.688 50.886 347.688 50.76C347.688 50.634 357.813 50.526 370.305 50.526C382.797 50.526 392.922 50.625 392.922 50.76Z" fill="#263238"/>
<path d="M399.6 55.8C398.892 55.6223 398.208 55.3562 397.566 55.008C396.84 54.6774 396.147 54.2797 395.496 53.82C395.108 53.5547 394.747 53.2534 394.416 52.92L393.948 52.335C393.76 52.123 393.61 51.8792 393.507 51.615C393.468 51.458 393.468 51.2939 393.508 51.137C393.547 50.9801 393.624 50.8352 393.732 50.715C393.889 50.5114 394.064 50.3217 394.254 50.148C394.605 49.806 394.965 49.5 395.307 49.248C396.009 48.69 396.621 48.204 397.107 47.754C397.615 47.2115 398.227 46.7768 398.907 46.476C398.907 46.521 398.304 47.034 397.368 47.997C396.891 48.474 396.279 49.014 395.568 49.572C395.235 49.86 394.893 50.166 394.551 50.472C394.209 50.778 393.822 51.192 393.939 51.489C394.38 52.2926 394.995 52.9875 395.739 53.523C396.355 53.989 397.009 54.4044 397.692 54.765C398.358 55.0526 398.996 55.399 399.6 55.8Z" fill="#263238"/>
<path d="M397.935 46.161H343.935C342.648 46.161 341.415 45.6499 340.505 44.7402C339.595 43.8304 339.084 42.5966 339.084 41.31C339.074 40.6734 339.196 40.0417 339.441 39.4542C339.686 38.8667 340.05 38.336 340.509 37.8952C340.969 37.4545 341.514 37.113 342.111 36.8923C342.708 36.6715 343.344 36.5761 343.98 36.612H397.98C398.609 36.5861 399.237 36.6891 399.824 36.9147C400.412 37.1402 400.947 37.4835 401.397 37.9235C401.847 38.3635 402.203 38.8909 402.442 39.4732C402.68 40.0556 402.798 40.6807 402.786 41.31C402.786 42.5966 402.275 43.8304 401.365 44.7402C400.455 45.6499 399.222 46.161 397.935 46.161Z" fill="#10BF80"/>
<path d="M343.107 46.008C343.495 45.4435 343.945 44.9242 344.448 44.46L345.996 42.867C346.307 42.5782 346.585 42.2552 346.824 41.904C346.945 41.7447 347.029 41.5596 347.068 41.3631C347.107 41.1665 347.1 40.9637 347.049 40.77C346.886 40.3826 346.594 40.0642 346.221 39.87C345.852 39.645 345.447 39.456 345.078 39.258L343.116 38.205C342.489 37.922 341.899 37.5622 341.361 37.134C342.022 37.3217 342.659 37.5844 343.26 37.917L345.267 38.871C345.645 39.06 346.041 39.231 346.455 39.474C346.931 39.7143 347.303 40.121 347.499 40.617C347.569 40.8773 347.579 41.1499 347.529 41.4148C347.479 41.6796 347.37 41.9298 347.211 42.147C346.951 42.5166 346.649 42.8548 346.311 43.155L344.7 44.694C344.223 45.1937 343.688 45.6348 343.107 46.008Z" fill="#263238"/>
<path d="M392.922 41.013C392.922 41.139 382.788 41.247 370.305 41.247C357.822 41.247 347.688 41.139 347.688 41.013C347.688 40.887 357.813 40.779 370.305 40.779C382.797 40.779 392.922 40.887 392.922 41.013Z" fill="#263238"/>
<path d="M399.6 46.017C398.892 45.8393 398.208 45.5732 397.566 45.225C396.84 44.8944 396.147 44.4967 395.496 44.037C395.105 43.7769 394.742 43.4752 394.416 43.137L393.948 42.552C393.758 42.3415 393.608 42.0973 393.507 41.832C393.468 41.675 393.468 41.5109 393.508 41.354C393.547 41.1971 393.624 41.0522 393.732 40.932C393.892 40.7305 394.066 40.541 394.254 40.365C394.605 40.023 394.965 39.717 395.307 39.465C396.009 38.907 396.621 38.421 397.107 37.971C398.097 37.071 398.835 36.621 398.907 36.702C398.979 36.783 398.304 37.251 397.368 38.214C396.891 38.691 396.279 39.231 395.568 39.798C395.235 40.086 394.893 40.392 394.551 40.698C394.209 41.004 393.822 41.418 393.939 41.715C394.169 42.1152 394.437 42.492 394.74 42.84C395.04 43.1748 395.375 43.4765 395.739 43.74C396.36 44.1997 397.012 44.6147 397.692 44.982C398.358 45.2677 398.997 45.6141 399.6 46.017Z" fill="#263238"/>
<path d="M397.269 46.395C397.269 46.521 385.218 46.629 370.35 46.629C355.482 46.629 343.431 46.521 343.431 46.395C343.431 46.269 355.482 46.161 370.35 46.161C385.218 46.161 397.269 46.26 397.269 46.395Z" fill="#263238"/>
<path d="M399.483 52.047C399.573 52.047 399.645 55.098 399.645 58.869C399.645 62.64 399.6 65.7 399.483 65.7C399.366 65.7 399.321 62.64 399.321 58.869C399.321 55.098 399.393 52.047 399.483 52.047Z" fill="#263238"/>
<path d="M405.747 64.53H393.345V86.004H405.747V64.53Z" fill="white"/>
<path d="M405.846 75.744H393.444V86.004H405.846V75.744Z" fill="#10BF80"/>
<path d="M403.731 72.225C400.906 72.441 398.069 72.441 395.244 72.225C398.069 72.009 400.906 72.009 403.731 72.225Z" fill="#263238"/>
<path d="M403.569 73.8C400.75 74.0151 397.919 74.0151 395.1 73.8C397.925 73.584 400.762 73.584 403.587 73.8H403.569Z" fill="#263238"/>
<path d="M400.023 83.322V84.069H399.213V83.349C398.603 83.3175 398.01 83.1383 397.485 82.827L397.926 81.837C398.398 82.1354 398.943 82.2974 399.501 82.305C400.059 82.305 400.275 82.143 400.275 81.918C400.275 81.162 397.575 81.711 397.575 79.938C397.575 79.191 398.115 78.561 399.222 78.426V77.67H400.032V78.408C400.518 78.4428 400.99 78.5809 401.418 78.813L401.004 79.812C400.599 79.5834 400.145 79.4568 399.681 79.443C399.114 79.443 398.907 79.632 398.907 79.875C398.907 80.604 401.607 80.055 401.607 81.81C401.607 82.539 401.085 83.16 400.023 83.322Z" fill="white"/>
<path d="M400.473 68.202H395.397V69.948H400.473V68.202Z" fill="#263238"/>
<path d="M405.747 86.004C405.736 85.8602 405.736 85.7158 405.747 85.572C405.747 85.257 405.747 84.861 405.747 84.375C405.747 83.286 405.747 81.783 405.684 79.875C405.684 76.041 405.621 70.713 405.585 64.485L405.801 64.701H393.399C393.345 64.755 393.84 64.26 393.633 64.476V70.47C393.633 72.414 393.633 74.304 393.633 76.122C393.633 79.722 393.633 83.052 393.588 85.941L393.408 85.761L402.408 85.86H404.91C405.486 85.86 405.81 85.86 405.81 85.86C405.531 85.8804 405.252 85.8804 404.973 85.86H402.516L393.408 85.95H393.228V85.77C393.228 82.881 393.228 79.569 393.228 75.951C393.228 74.151 393.228 72.243 393.228 70.299V64.539L393.462 64.296H405.864H406.08V64.512C406.035 70.812 405.999 76.212 405.972 80.046C405.972 81.891 405.927 83.376 405.918 84.447C405.918 84.924 405.918 85.347 405.918 85.608C405.877 85.7464 405.82 85.8793 405.747 86.004Z" fill="#263238"/>
<path d="M116.838 128.817H32.022V138.969H116.838V128.817Z" fill="#455A64"/>
<path d="M101.763 128.817H47.763C46.4756 128.817 45.2408 128.306 44.3296 127.397C43.4184 126.487 42.9053 125.253 42.903 123.966C42.903 122.677 43.415 121.441 44.3264 120.529C45.2378 119.618 46.474 119.106 47.763 119.106H101.763C103.052 119.106 104.288 119.618 105.199 120.529C106.111 121.441 106.623 122.677 106.623 123.966C106.621 125.253 106.107 126.487 105.196 127.397C104.285 128.306 103.05 128.817 101.763 128.817Z" fill="#10BF80"/>
<path d="M46.944 128.7C47.329 128.131 47.7791 127.608 48.285 127.143L49.833 125.559C50.1397 125.266 50.4171 124.943 50.661 124.596C50.7808 124.434 50.8632 124.248 50.9021 124.05C50.9411 123.852 50.9355 123.648 50.886 123.453C50.7275 123.063 50.4334 122.743 50.058 122.553C49.689 122.328 49.275 122.139 48.915 121.941L46.953 120.888C46.3087 120.611 45.7035 120.251 45.153 119.817C45.8128 120.004 46.4497 120.263 47.052 120.591L49.104 121.5C49.482 121.689 49.878 121.86 50.292 122.103C50.7646 122.363 51.1238 122.79 51.3 123.3C51.371 123.562 51.3819 123.836 51.3321 124.102C51.2822 124.369 51.1728 124.621 51.012 124.839C50.7497 125.207 50.4479 125.545 50.112 125.847C49.527 126.387 48.987 126.9 48.483 127.377C48.0179 127.871 47.502 128.314 46.944 128.7Z" fill="#263238"/>
<path d="M96.75 123.669C96.75 123.795 86.625 123.903 74.142 123.903C61.659 123.903 51.525 123.795 51.525 123.669C51.525 123.543 61.65 123.435 74.142 123.435C86.634 123.435 96.75 123.534 96.75 123.669Z" fill="#263238"/>
<path d="M103.428 128.7C102.72 128.521 102.037 128.255 101.394 127.908C100.672 127.575 99.9826 127.178 99.3329 126.72C98.9434 126.44 98.5817 126.124 98.2529 125.775C98.0819 125.577 97.9289 125.379 97.7849 125.19C97.5965 124.978 97.4471 124.734 97.3439 124.47C97.3051 124.313 97.3053 124.149 97.3445 123.992C97.3837 123.835 97.4608 123.69 97.5689 123.57C97.7261 123.369 97.8975 123.179 98.0819 123.003C98.4419 122.661 98.8019 122.355 99.1439 122.103C99.8459 121.545 100.458 121.059 100.944 120.609C101.452 120.066 102.064 119.632 102.744 119.331C102.744 119.331 102.141 119.889 101.205 120.852C100.728 121.329 100.116 121.869 99.4049 122.427C99.0719 122.715 98.7209 123.021 98.3879 123.327C98.0549 123.633 97.6589 124.047 97.7759 124.344C98.0004 124.75 98.269 125.131 98.5769 125.478C98.8779 125.808 99.2094 126.11 99.5669 126.378C100.186 126.844 100.843 127.259 101.529 127.62C102.194 127.92 102.83 128.282 103.428 128.7Z" fill="#263238"/>
<path d="M101.763 119.07H47.763C47.1252 119.071 46.4934 118.947 45.9038 118.703C45.3142 118.46 44.7784 118.103 44.327 117.652C43.8756 117.202 43.5174 116.667 43.2731 116.077C43.0287 115.488 42.903 114.857 42.903 114.219C42.903 113.581 43.0287 112.95 43.2731 112.361C43.5174 111.771 43.8756 111.236 44.327 110.786C44.7784 110.335 45.3142 109.978 45.9038 109.735C46.4934 109.491 47.1252 109.367 47.763 109.368H101.763C102.401 109.367 103.033 109.491 103.622 109.735C104.212 109.978 104.748 110.335 105.199 110.786C105.65 111.236 106.008 111.771 106.253 112.361C106.497 112.95 106.623 113.581 106.623 114.219C106.623 114.857 106.497 115.488 106.253 116.077C106.008 116.667 105.65 117.202 105.199 117.652C104.748 118.103 104.212 118.46 103.622 118.703C103.033 118.947 102.401 119.071 101.763 119.07Z" fill="#10BF80"/>
<path d="M46.944 118.917C47.3281 118.35 47.7782 117.83 48.285 117.369L49.833 115.776C50.1419 115.485 50.4194 115.162 50.661 114.813C50.7807 114.653 50.863 114.468 50.9019 114.271C50.9409 114.075 50.9354 113.873 50.886 113.679C50.7234 113.292 50.4305 112.973 50.058 112.779C49.689 112.554 49.275 112.365 48.915 112.167C48.213 111.798 47.556 111.447 46.953 111.114C46.3087 110.837 45.7035 110.477 45.153 110.043C45.8138 110.231 46.4509 110.493 47.052 110.826L49.059 111.78C49.437 111.969 49.833 112.14 50.247 112.383C50.7287 112.623 51.1041 113.034 51.3 113.535C51.3743 113.795 51.387 114.068 51.337 114.334C51.287 114.6 51.1757 114.85 51.012 115.065C50.752 115.435 50.45 115.773 50.112 116.073C49.527 116.613 48.987 117.126 48.483 117.603C48.0205 118.097 47.5043 118.538 46.944 118.917Z" fill="#263238"/>
<path d="M96.75 113.922C96.75 114.048 86.625 114.156 74.142 114.156C61.659 114.156 51.525 114.048 51.525 113.922C51.525 113.796 61.65 113.688 74.142 113.688C86.634 113.688 96.75 113.796 96.75 113.922Z" fill="#263238"/>
<path d="M103.428 118.926C102.72 118.747 102.037 118.481 101.394 118.134C100.672 117.801 99.9826 117.404 99.3329 116.946C98.9392 116.672 98.5769 116.355 98.2529 116.001C98.0819 115.803 97.9289 115.605 97.7849 115.416C97.5945 115.205 97.445 114.961 97.3439 114.696C97.3051 114.539 97.3053 114.375 97.3445 114.218C97.3837 114.061 97.4608 113.916 97.5689 113.796C97.7283 113.597 97.8996 113.407 98.0819 113.229C98.4419 112.887 98.8019 112.581 99.1439 112.329C99.8459 111.771 100.458 111.285 100.944 110.835C101.934 109.935 102.672 109.485 102.744 109.566C102.816 109.647 102.141 110.115 101.205 111.078C100.728 111.555 100.116 112.095 99.4049 112.662C99.0719 112.95 98.7209 113.256 98.3879 113.562C98.0549 113.868 97.6589 114.291 97.7759 114.588C98.0002 114.992 98.2689 115.369 98.5769 115.713C98.8759 116.045 99.2076 116.347 99.5669 116.613C100.191 117.073 100.846 117.488 101.529 117.855C102.195 118.151 102.831 118.509 103.428 118.926Z" fill="#263238"/>
<path d="M101.106 119.304C101.106 119.43 89.0459 119.538 74.1869 119.538C59.3279 119.538 47.2679 119.43 47.2679 119.304C47.2679 119.178 59.3189 119.07 74.1869 119.07C89.0549 119.07 101.106 119.169 101.106 119.304Z" fill="#263238"/>
<path d="M97.2 122.4C97.29 122.4 97.362 125.46 97.362 129.231C97.362 133.002 97.29 136.053 97.2 136.053C97.11 136.053 97.038 133.002 97.038 129.231C97.038 125.46 97.128 122.4 97.2 122.4Z" fill="#263238"/>
<path d="M103.482 134.901H91.08V156.375H103.482V134.901Z" fill="white"/>
<path d="M103.581 146.115H91.179V156.375H103.581V146.115Z" fill="#10BF80"/>
<path d="M101.466 142.596C100.056 142.758 98.636 142.812 97.218 142.758C95.7999 142.812 94.3798 142.758 92.97 142.596C94.3798 142.434 95.7999 142.38 97.218 142.434C98.636 142.38 100.056 142.434 101.466 142.596Z" fill="#263238"/>
<path d="M101.304 144.126C99.8942 144.288 98.4741 144.342 97.056 144.288C95.641 144.342 94.2238 144.288 92.817 144.126C94.2238 143.964 95.641 143.91 97.056 143.964C98.4741 143.91 99.8942 143.964 101.304 144.126Z" fill="#263238"/>
<path d="M97.758 153.684V154.44H96.939V153.711C96.3323 153.685 95.7416 153.509 95.22 153.198L95.661 152.199C96.132 152.5 96.677 152.665 97.236 152.676C97.794 152.676 98.01 152.514 98.01 152.28C98.01 151.524 95.31 152.082 95.31 150.309C95.31 149.562 95.85 148.932 96.948 148.788V148.041H97.767V148.779C98.2533 148.81 98.7267 148.948 99.153 149.184L98.739 150.183C98.3345 149.954 97.8804 149.828 97.416 149.814C96.849 149.814 96.642 150.003 96.642 150.246C96.642 150.966 99.342 150.426 99.342 152.181C99.342 152.901 98.82 153.531 97.758 153.684Z" fill="white"/>
<path d="M98.208 138.573H93.132V140.319H98.208V138.573Z" fill="#263238"/>
<path d="M103.5 156.375C103.489 156.231 103.489 156.087 103.5 155.943C103.5 155.628 103.5 155.232 103.5 154.746C103.5 153.657 103.5 152.154 103.437 150.246C103.437 146.421 103.374 141.093 103.338 134.865L103.554 135.081H91.152C91.098 135.081 91.593 134.64 91.386 134.847V140.832C91.386 142.776 91.386 144.666 91.386 146.475C91.386 150.075 91.386 153.414 91.386 156.303L91.206 156.123L100.206 156.222L102.708 156.267C103.284 156.267 103.608 156.267 103.608 156.267C103.329 156.283 103.05 156.283 102.771 156.267L100.314 156.312L91.08 156.6H90.9V156.42C90.9 153.531 90.9 150.21 90.9 146.592C90.9 144.792 90.9 142.893 90.9 140.949V134.964L91.134 134.73H103.536H103.752V134.946C103.752 141.246 103.671 146.646 103.644 150.471C103.644 152.325 103.644 153.81 103.59 154.881C103.59 155.358 103.59 155.781 103.59 156.042C103.57 156.156 103.54 156.267 103.5 156.375Z" fill="#263238"/>
<path d="M116.838 85.221H32.022V95.373H116.838V85.221Z" fill="#455A64"/>
<path d="M99.117 66.384H46.197C44.0149 66.384 42.246 68.1529 42.246 70.335V72.252C42.246 74.4341 44.0149 76.203 46.197 76.203H99.117C101.299 76.203 103.068 74.4341 103.068 72.252V70.335C103.068 68.1529 101.299 66.384 99.117 66.384Z" fill="#263238"/>
<path d="M99.7379 56.565H46.8179C44.6359 56.565 42.8669 58.3339 42.8669 60.516V62.433C42.8669 64.6151 44.6359 66.384 46.8179 66.384H99.7379C101.92 66.384 103.689 64.6151 103.689 62.433V60.516C103.689 58.3339 101.92 56.565 99.7379 56.565Z" fill="#263238"/>
<path d="M54.396 66.384C54.396 66.312 64.521 66.258 77.004 66.258C89.487 66.258 99.612 66.312 99.612 66.384C99.612 66.456 89.496 66.519 77.004 66.519C64.512 66.519 54.396 66.456 54.396 66.384Z" fill="#263238"/>
<path d="M63.18 76.248C62.9895 75.8197 62.8534 75.3692 62.775 74.907C62.2922 72.6759 62.2707 70.3697 62.712 68.13C62.7794 67.6646 62.9096 67.2104 63.099 66.78C63.0578 67.2457 62.9886 67.7086 62.892 68.166C62.5737 70.3927 62.6101 72.6557 63 74.871C63.0922 75.3252 63.1523 75.7854 63.18 76.248Z" fill="white"/>
<path d="M72.279 76.446C72.1047 75.9905 71.9839 75.5163 71.919 75.033C71.5083 72.7248 71.487 70.3642 71.856 68.049C71.9119 67.5549 72.0236 67.0688 72.189 66.6C72.1705 67.0825 72.1224 67.5634 72.045 68.04C71.91 69.1899 71.8469 70.3472 71.856 71.505C71.8728 72.6639 71.9569 73.8208 72.108 74.97C72.1914 75.4586 72.2484 75.9513 72.279 76.446Z" fill="white"/>
<path d="M81.621 76.446C81.4733 75.9835 81.3738 75.5069 81.324 75.024C81.152 73.8617 81.0618 72.6888 81.054 71.514C81.0384 70.3378 81.1046 69.162 81.252 67.995C81.291 67.5208 81.3846 67.0527 81.531 66.6C81.5288 67.0873 81.4987 67.5741 81.441 68.058C81.369 68.958 81.297 70.182 81.306 71.55C81.315 72.918 81.414 74.142 81.504 75.033C81.5809 75.5001 81.62 75.9726 81.621 76.446Z" fill="white"/>
<path d="M92.07 76.095C91.9546 75.6469 91.8823 75.1888 91.854 74.727C91.755 73.881 91.656 72.711 91.575 71.406C91.494 70.101 91.458 68.931 91.458 68.085C91.4263 67.6224 91.4444 67.1577 91.512 66.699C91.5912 67.1538 91.6333 67.6144 91.638 68.076C91.692 68.976 91.764 70.146 91.836 71.397C91.908 72.648 91.98 73.773 92.034 74.709C92.089 75.1689 92.101 75.6329 92.07 76.095Z" fill="white"/>
<path d="M96.786 66.42C96.6261 64.8171 96.554 63.2067 96.57 61.596C96.4845 59.9831 96.4845 58.3669 96.57 56.754C96.633 56.754 96.732 58.914 96.786 61.587C96.8717 63.1969 96.8717 64.8101 96.786 66.42Z" fill="white"/>
<path d="M86.184 66.213C86.047 65.7491 85.9565 65.2728 85.914 64.791C85.6288 62.4713 85.6742 60.1229 86.049 57.816C86.118 57.3343 86.2356 56.8609 86.4 56.403C86.3932 56.8862 86.3451 57.368 86.256 57.843C86.157 58.743 86.049 59.949 86.022 61.299C85.995 62.649 86.022 63.882 86.121 64.773C86.1756 65.2509 86.1966 65.7321 86.184 66.213Z" fill="white"/>
<path d="M75.8069 66.492C75.6821 66.0125 75.6126 65.5203 75.5999 65.025C75.4921 63.8282 75.468 62.6252 75.5279 61.425C75.5804 60.2176 75.7127 59.015 75.9239 57.825C75.994 57.3348 76.1115 56.8525 76.2749 56.385C76.2487 56.8771 76.1915 57.3671 76.1039 57.852C75.9869 58.752 75.8519 60.003 75.7889 61.389C75.7259 62.775 75.7889 64.026 75.7889 64.935C75.8301 65.453 75.8362 65.9732 75.8069 66.492Z" fill="white"/>
<path d="M66.3029 66.6C66.1234 66.1425 65.9995 65.665 65.9339 65.178C65.5139 62.8478 65.5139 60.4612 65.9339 58.131C65.997 57.6405 66.121 57.1598 66.3029 56.7C66.2692 57.1864 66.2061 57.6702 66.1139 58.149C65.9611 59.3068 65.8829 60.4732 65.8799 61.641C65.8809 62.8122 65.962 63.9819 66.1229 65.142C66.2103 65.6242 66.2704 66.111 66.3029 66.6Z" fill="white"/>
<path d="M55.557 66.195C55.557 66.195 55.476 66.078 55.377 65.844C55.2393 65.5186 55.1221 65.185 55.026 64.845C54.703 63.7205 54.5275 62.5587 54.504 61.389C54.4811 60.2185 54.6142 59.0503 54.9 57.915C55.017 57.483 55.125 57.132 55.215 56.898C55.305 56.664 55.359 56.538 55.377 56.547C55.395 56.556 55.251 57.087 55.08 57.951C54.6237 60.216 54.6667 62.5533 55.206 64.8C55.413 65.7 55.593 66.177 55.557 66.195Z" fill="white"/>
<path d="M53.8109 75.744C53.5362 75.3713 53.3207 74.9584 53.1719 74.52C52.7629 73.4848 52.5024 72.3971 52.3979 71.289C52.2881 70.1774 52.3396 69.0558 52.5509 67.959C52.6098 67.4889 52.7404 67.0306 52.9379 66.6C52.9379 66.6 52.8479 67.122 52.7309 67.95C52.4156 70.1249 52.6255 72.3437 53.3429 74.421C53.6219 75.249 53.8469 75.726 53.8109 75.744Z" fill="white"/>
<path d="M47.592 75.393C47.3284 75.0359 47.1331 74.6331 47.016 74.205C46.6769 73.1854 46.4949 72.1203 46.476 71.046C46.4647 69.9806 46.5309 68.9158 46.674 67.86C46.7149 67.4332 46.7962 67.0113 46.917 66.6C46.9407 67.0417 46.9227 67.4847 46.863 67.923C46.7671 68.9731 46.7251 70.0275 46.737 71.082C46.7607 72.1314 46.9118 73.174 47.187 74.187C47.412 74.925 47.628 75.375 47.592 75.393Z" fill="white"/>
<path d="M49.158 56.565C49.158 56.565 48.924 57.087 48.618 57.942C48.2372 59.0666 48.0456 60.2466 48.051 61.434C48.0641 62.621 48.2182 63.8023 48.51 64.953C48.6557 65.4255 48.773 65.9064 48.861 66.393C48.861 66.393 48.78 66.276 48.69 66.033C48.6 65.79 48.465 65.439 48.33 64.998C47.9781 63.8301 47.7963 62.6177 47.79 61.398C47.7742 60.1668 47.9973 58.9442 48.447 57.798C48.5828 57.4602 48.7422 57.1324 48.924 56.817C49.059 56.7 49.14 56.556 49.158 56.565Z" fill="white"/>
<path d="M94.482 49.284H55.3229C53.7075 49.284 52.3979 50.5936 52.3979 52.209V53.631C52.3979 55.2464 53.7075 56.556 55.3229 56.556H94.482C96.0974 56.556 97.407 55.2464 97.407 53.631V52.209C97.407 50.5936 96.0974 49.284 94.482 49.284Z" fill="#455A64"/>
<path d="M94.9409 42.012H55.7819C54.1665 42.012 52.8569 43.3216 52.8569 44.937V46.359C52.8569 47.9744 54.1665 49.284 55.7819 49.284H94.9409C96.5564 49.284 97.8659 47.9744 97.8659 46.359V44.937C97.8659 43.3216 96.5564 42.012 94.9409 42.012Z" fill="#455A64"/>
<path d="M61.2 49.203C61.2 49.131 68.688 49.077 77.922 49.077C87.156 49.077 94.6529 49.131 94.6529 49.203C94.6529 49.275 87.165 49.338 77.922 49.338C68.679 49.338 61.2 49.275 61.2 49.203Z" fill="#263238"/>
<path d="M61.623 42.237C61.2687 42.5229 60.8891 42.7759 60.489 42.993L57.699 44.739L54.9 46.53C54.5319 46.8014 54.1404 47.0393 53.73 47.241C54.0538 46.9036 54.4128 46.6019 54.801 46.341C55.476 45.846 56.439 45.18 57.501 44.487C58.563 43.794 59.598 43.209 60.345 42.795C60.7485 42.5613 61.1772 42.3741 61.623 42.237Z" fill="white"/>
<path d="M72 42.3C72 42.363 69.786 43.947 66.969 45.837C64.152 47.727 61.83 49.212 61.794 49.149C61.758 49.086 63.999 47.511 66.825 45.621C69.651 43.731 72 42.246 72 42.3Z" fill="white"/>
<path d="M82.854 42.3C82.854 42.363 80.64 43.947 77.823 45.837C75.006 47.727 72.684 49.212 72.648 49.149C72.612 49.086 74.862 47.511 77.679 45.621C80.496 43.731 82.8 42.246 82.854 42.3Z" fill="white"/>
<path d="M68.463 49.374C68.508 49.437 66.249 51.012 63.432 52.902C60.615 54.792 58.293 56.277 58.257 56.223C58.221 56.169 60.471 54.585 63.288 52.695C66.105 50.805 68.4 49.32 68.463 49.374Z" fill="white"/>
<path d="M80.8829 49.374C80.8829 49.437 78.6689 51.012 75.8519 52.902C73.0349 54.792 70.7129 56.277 70.6769 56.223C70.6409 56.169 72.8909 54.585 75.7079 52.695C78.5249 50.805 80.8469 49.32 80.8829 49.374Z" fill="white"/>
<path d="M93.3029 49.374C93.3029 49.437 91.0889 51.012 88.2719 52.902C85.4549 54.792 83.1329 56.277 83.0879 56.223C83.0429 56.169 85.3019 54.585 88.1279 52.695C90.9539 50.805 93.2579 49.32 93.3029 49.374Z" fill="white"/>
<path d="M93.6809 42.3C93.6809 42.363 91.4669 43.947 88.6499 45.837C85.8329 47.727 83.5109 49.212 83.4749 49.149C83.4389 49.086 85.6889 47.511 88.5059 45.621C91.3229 43.731 93.6449 42.246 93.6809 42.3Z" fill="white"/>
<path d="M99.4679 76.023H46.5479C44.3658 76.023 42.5969 77.7919 42.5969 79.974V81.891C42.5969 84.0731 44.3658 85.842 46.5479 85.842H99.4679C101.65 85.842 103.419 84.0731 103.419 81.891V79.974C103.419 77.7919 101.65 76.023 99.4679 76.023Z" fill="#10BF80"/>
<path d="M99.405 76.095C99.405 76.167 87.633 76.221 73.125 76.221C58.617 76.221 46.845 76.167 46.845 76.095C46.845 76.023 58.608 75.96 73.125 75.96C87.642 75.96 99.405 76.023 99.405 76.095Z" fill="#263238"/>
<path d="M100.017 84.843C100.017 84.843 100.017 84.843 99.882 84.843L99.477 84.789L97.911 84.6L92.16 83.7C87.309 82.962 80.604 81.954 73.197 80.901C65.79 79.848 59.058 78.939 54.198 78.3L48.438 77.535L46.872 77.319L46.467 77.256C46.4192 77.2621 46.3708 77.2621 46.323 77.256H46.467H46.872L48.447 77.418L54.216 78.102C59.094 78.705 65.817 79.578 73.233 80.631C80.649 81.684 87.345 82.719 92.187 83.493L97.929 84.447L99.477 84.726L99.882 84.798L100.017 84.843Z" fill="#263238"/>
<path d="M96.939 76.05C96.6917 76.149 96.4355 76.2243 96.174 76.275L94.059 76.797C92.259 77.238 89.793 77.85 87.084 78.597C84.375 79.344 81.9 79.992 80.145 80.505L78.039 81.099C77.7862 81.1818 77.5275 81.2449 77.265 81.288C77.5053 81.1707 77.7552 81.0743 78.012 81L80.1 80.325C81.9 79.776 84.303 79.047 87.021 78.327C89.739 77.607 92.223 77.013 94.023 76.617L96.156 76.176C96.413 76.1118 96.6749 76.0697 96.939 76.05Z" fill="#263238"/>
<path d="M46.215 72.297C46.305 72.297 46.377 75.348 46.377 79.119C46.377 82.89 46.305 85.95 46.215 85.95C46.125 85.95 46.053 82.89 46.053 79.119C46.053 75.348 46.125 72.297 46.215 72.297Z" fill="#263238"/>
<path d="M52.479 84.78H40.077V106.254H52.479V84.78Z" fill="white"/>
<path d="M52.578 95.994H40.176V106.254H52.578V95.994Z" fill="#10BF80"/>
<path d="M50.4629 92.475C49.0531 92.6369 47.633 92.6911 46.2149 92.637C44.7969 92.6911 43.3767 92.6369 41.9669 92.475C43.3767 92.313 44.7969 92.2589 46.2149 92.313C47.633 92.2589 49.0531 92.313 50.4629 92.475Z" fill="#263238"/>
<path d="M50.3009 94.014C48.8911 94.1759 47.471 94.2301 46.0529 94.176C44.6349 94.2301 43.2148 94.1759 41.8049 94.014C43.2148 93.852 44.6349 93.7979 46.0529 93.852C47.471 93.7979 48.8911 93.852 50.3009 94.014Z" fill="#263238"/>
<path d="M46.8 103.572V104.328H45.9V103.599C45.2933 103.566 44.7035 103.387 44.181 103.077L44.622 102.087C45.0932 102.387 45.6387 102.549 46.197 102.555C46.755 102.555 46.971 102.402 46.971 102.168C46.971 101.412 44.271 101.961 44.271 100.188C44.271 99.441 44.811 98.811 45.909 98.676V97.929H46.8V98.658C47.2856 98.6928 47.7581 98.8309 48.186 99.063L47.7 100.062C47.2992 99.8324 46.8478 99.7057 46.386 99.693C45.819 99.693 45.612 99.882 45.612 100.125C45.612 100.854 48.312 100.305 48.312 102.06C48.33 102.789 47.817 103.41 46.8 103.572Z" fill="white"/>
<path d="M47.205 88.452H42.129V90.198H47.205V88.452Z" fill="#263238"/>
<path d="M52.479 106.254C52.4683 106.11 52.4683 105.966 52.479 105.822C52.479 105.516 52.479 105.111 52.479 104.625C52.479 103.536 52.479 102.033 52.416 100.125C52.416 96.3 52.353 90.972 52.308 84.735L52.533 84.951H40.131C40.077 85.005 40.572 84.51 40.365 84.726V87.759C40.365 88.758 40.365 89.748 40.365 90.72C40.365 92.67 40.365 94.554 40.365 96.372C40.365 99.972 40.365 103.302 40.365 106.191L40.185 106.011L49.185 106.11H51.678C52.254 106.11 52.578 106.11 52.578 106.11C52.2993 106.13 52.0196 106.13 51.741 106.11H49.284L40.176 106.2H39.996V106.011C39.996 103.122 39.996 99.81 39.996 96.192C39.996 94.392 39.996 92.508 39.996 90.54V84.789L40.23 84.546H52.632H52.848V84.762C52.848 91.062 52.767 96.462 52.74 100.296C52.74 102.141 52.74 103.626 52.677 104.697C52.677 105.174 52.677 105.597 52.677 105.858C52.677 106.119 52.479 106.263 52.479 106.254Z" fill="#263238"/>
<path d="M77.2741 174.528H77.1571C77.0992 174.515 77.0447 174.489 76.997 174.454C76.9493 174.419 76.9095 174.374 76.8799 174.322C76.8503 174.271 76.8317 174.214 76.8252 174.155C76.8187 174.095 76.8244 174.036 76.8421 173.979C77.1523 172.708 77.093 171.375 76.6711 170.136C76.4134 169.558 76.0903 169.011 75.7081 168.507C74.6985 167.144 74.147 165.496 74.1331 163.8V163.647C74.1331 162.372 74.6394 161.15 75.5407 160.249C76.442 159.347 77.6644 158.841 78.9391 158.841C80.2137 158.841 81.4361 159.347 82.3374 160.249C83.2387 161.15 83.7451 162.372 83.7451 163.647V164.547C83.7451 164.666 83.6976 164.781 83.6133 164.865C83.5289 164.95 83.4144 164.997 83.2951 164.997C83.1764 164.995 83.0633 164.947 82.9794 164.863C82.8955 164.779 82.8474 164.666 82.8451 164.547V163.647C82.8451 162.611 82.4335 161.618 81.701 160.885C80.9685 160.153 79.975 159.741 78.9391 159.741C77.9031 159.741 76.9096 160.153 76.1771 160.885C75.4446 161.618 75.0331 162.611 75.0331 163.647V163.8C75.0452 165.306 75.537 166.769 76.4371 167.976C76.8566 168.533 77.21 169.137 77.4901 169.776C77.9999 171.201 78.0751 172.745 77.7061 174.213C77.6772 174.305 77.6197 174.385 77.5419 174.442C77.4642 174.498 77.3703 174.529 77.2741 174.528Z" fill="#263238"/>
<path d="M45.1531 183.6L77.2831 170.847L105.183 183.6C105.183 183.6 106.821 185.886 103.815 186.768C102.222 187.236 77.3821 175.383 77.3821 175.383C77.3821 175.383 47.5201 186.606 46.5571 186.3C45.5941 185.994 44.4331 184.5 45.1531 183.6Z" fill="#AE7461"/>
<path d="M61.2 176.4C61.2 176.4 45.36 182.934 43.2 183.915C39.798 185.463 34.308 191.664 33.624 192.807C33.624 192.807 29.061 203.751 29.061 204.435C29.061 205.119 45.135 219.474 45.135 219.474L45 245.169V267.669L108.747 266.283L106.047 218.277L120.177 204.147L118.125 199.593C117.439 196.147 115.983 192.9 113.867 190.095C111.751 187.29 109.028 184.999 105.903 183.393L92.196 176.4C92.196 176.4 90.603 187.569 76.698 187.569C62.793 187.569 61.2 176.4 61.2 176.4Z" fill="#10BF80"/>
<path d="M107.73 196.416C107.74 196.494 107.74 196.572 107.73 196.65L107.631 197.325C107.541 197.901 107.415 198.747 107.271 199.791C106.983 201.879 106.659 204.777 106.461 207.981C106.263 211.185 106.245 214.101 106.281 216.216C106.281 217.269 106.326 218.115 106.344 218.709C106.344 218.979 106.344 219.204 106.344 219.384C106.36 219.464 106.36 219.547 106.344 219.627C106.339 219.549 106.339 219.471 106.344 219.393L106.2 218.7C106.155 218.115 106.11 217.26 106.074 216.207C106.002 214.101 105.993 211.176 106.191 207.963C106.389 204.75 106.74 201.843 107.091 199.764C107.253 198.72 107.406 197.874 107.523 197.298L107.658 196.632C107.703 196.488 107.721 196.407 107.73 196.416Z" fill="#263238"/>
<path d="M93.0061 177.741C93.002 178.326 92.9295 178.909 92.7901 179.478C92.4277 181.044 91.7273 182.513 90.7381 183.78C90.0619 184.66 89.2789 185.452 88.4071 186.138C87.3951 186.912 86.2843 187.548 85.1041 188.028C82.3885 189.103 79.4688 189.564 76.5541 189.378C73.6366 189.268 70.7714 188.57 68.1301 187.326C65.9758 186.305 64.0736 184.82 62.5591 182.979C61.5354 181.744 60.7345 180.34 60.1921 178.83C59.9903 178.278 59.8396 177.709 59.7421 177.129C59.7421 177.129 59.7421 177.129 59.7871 177.237L59.8771 177.561C59.8771 177.705 59.9581 177.885 60.0301 178.092C60.1021 178.299 60.1741 178.533 60.2731 178.794C60.8413 180.28 61.6535 181.661 62.6761 182.88C64.1913 184.689 66.0834 186.145 68.2201 187.146C70.84 188.364 73.6759 189.05 76.5631 189.162C79.4477 189.338 82.3364 188.89 85.0321 187.848C86.1933 187.373 87.2884 186.75 88.2901 185.994C89.1552 185.324 89.935 184.55 90.6121 183.69C91.599 182.442 92.3133 181.001 92.7091 179.46C92.7811 179.19 92.8261 178.947 92.8621 178.731C92.9015 178.553 92.9286 178.373 92.9431 178.191V177.849C92.9618 177.812 92.9829 177.776 93.0061 177.741Z" fill="#263238"/>
<path d="M44.9281 199.008C45.0541 199.008 45.1981 204.894 45.2521 212.157C45.3061 219.42 45.2521 225.306 45.1081 225.306C44.9641 225.306 44.8381 219.42 44.7841 212.157C44.7301 204.894 44.7931 199.008 44.9281 199.008Z" fill="#263238"/>
<path d="M45.063 248.688L45.081 232.803L106.902 230.904L107.73 247.491L45.063 248.688Z" fill="#EBEBEB"/>
<path d="M96.3 245.169H96.156H95.76C95.4 245.124 94.86 245.097 94.212 244.98C92.3228 244.701 90.4596 244.267 88.641 243.684C85.9534 242.813 83.3579 241.679 80.892 240.3C77.8576 238.621 74.9862 236.662 72.315 234.45C69.6654 232.215 67.1557 229.82 64.8 227.277C62.613 224.955 60.732 222.777 59.184 220.923C57.636 219.069 56.412 217.557 55.584 216.504C55.17 215.982 54.846 215.604 54.621 215.28L54.369 214.965C54.315 214.893 54.288 214.848 54.297 214.848L54.387 214.947L54.648 215.253L55.647 216.45C56.547 217.485 57.762 218.988 59.319 220.824C60.876 222.66 62.775 224.829 64.962 227.124C67.3356 229.639 69.8571 232.01 72.513 234.225C75.1734 236.43 78.0292 238.388 81.045 240.075C83.5074 241.451 86.0963 242.587 88.776 243.468C90.5844 244.061 92.4346 244.518 94.311 244.836C94.968 244.962 95.49 244.998 95.841 245.061L96.246 245.115C96.3 245.151 96.3 245.16 96.3 245.169Z" fill="#263238"/>
<path d="M78.939 167.301C80.9819 167.301 82.638 165.645 82.638 163.602C82.638 161.559 80.9819 159.903 78.939 159.903C76.8961 159.903 75.24 161.559 75.24 163.602C75.24 165.645 76.8961 167.301 78.939 167.301Z" fill="#E0E0E0"/>
<path d="M99.306 261.792C99.396 261.792 99.468 264.852 99.468 268.623C99.468 272.394 99.396 275.445 99.306 275.445C99.216 275.445 99.144 272.394 99.144 268.623C99.144 264.852 99.216 261.792 99.306 261.792Z" fill="#263238"/>
<path d="M105.561 274.284H93.1591V295.758H105.561V274.284Z" fill="white"/>
<path d="M105.669 285.489H93.2671V295.749H105.669V285.489Z" fill="#10BF80"/>
<path d="M103.545 281.979C102.138 282.141 100.721 282.195 99.306 282.141C97.8879 282.195 96.4678 282.141 95.058 281.979C96.4678 281.817 97.8879 281.763 99.306 281.817C100.721 281.763 102.138 281.817 103.545 281.979Z" fill="#263238"/>
<path d="M103.383 283.5C101.976 283.662 100.559 283.716 99.144 283.662C97.7259 283.716 96.3058 283.662 94.896 283.5C96.3058 283.338 97.7259 283.284 99.144 283.338C100.559 283.284 101.976 283.338 103.383 283.5Z" fill="#263238"/>
<path d="M99.846 293.067V293.823H99V293.094C98.3902 293.07 97.7962 292.893 97.272 292.581L97.722 291.582C98.1903 291.881 98.7326 292.043 99.288 292.05C99.846 292.05 100.071 291.897 100.071 291.663C100.071 290.907 97.371 291.465 97.371 289.692C97.371 288.945 97.902 288.306 99.009 288.171V287.424H99.828V288.162C100.311 288.188 100.782 288.323 101.205 288.558L100.791 289.566C100.388 289.334 99.933 289.207 99.468 289.197C98.91 289.197 98.703 289.386 98.703 289.62C98.703 290.349 101.403 289.809 101.403 291.564C101.421 292.284 100.908 292.914 99.846 293.067Z" fill="white"/>
<path d="M100.287 277.956H95.2111V279.702H100.287V277.956Z" fill="#263238"/>
<path d="M105.561 295.758C105.551 295.614 105.551 295.47 105.561 295.326C105.561 295.011 105.561 294.615 105.561 294.12C105.561 293.04 105.561 291.537 105.507 289.665C105.507 285.84 105.444 280.512 105.399 274.284L105.615 274.5H93.2221C93.1681 274.545 93.6631 274.059 93.4471 274.266V280.251C93.4471 282.195 93.4471 284.085 93.4471 285.894C93.4471 289.494 93.447 292.833 93.402 295.722L93.2221 295.542L102.222 295.632L104.724 295.677C105.025 295.674 105.325 295.689 105.624 295.722C105.348 295.739 105.072 295.739 104.796 295.722H102.339L93.2221 295.821H93.042V295.641C93.042 292.752 93.042 289.431 93.042 285.813C93.042 284.013 93.042 282.114 93.042 280.17C93.042 279.198 93.042 278.208 93.042 277.2V274.185C92.835 274.392 93.3301 273.897 93.2851 273.951H105.885V274.176C105.885 280.476 105.813 285.876 105.786 289.701C105.786 291.555 105.786 293.04 105.723 294.111C105.723 294.588 105.723 294.966 105.723 295.263C105.691 295.434 105.637 295.601 105.561 295.758Z" fill="#263238"/>
<path d="M260.721 425.952L194.976 426.348L199.269 361.017L253.629 360.972L260.721 425.952Z" fill="#455A64"/>
<path d="M242.64 362.772C242.586 362.772 242.577 362.052 242.406 360.765C242.17 358.949 241.732 357.165 241.101 355.446C240.201 352.892 238.73 350.577 236.799 348.678C235.65 347.582 234.299 346.72 232.821 346.14C231.23 345.531 229.539 345.226 227.835 345.24C224.514 345.228 221.306 346.45 218.835 348.669C216.894 350.555 215.445 352.888 214.614 355.464C214.03 357.201 213.606 358.987 213.345 360.801L213.147 362.286C213.131 362.459 213.101 362.631 213.057 362.799C213.035 362.626 213.035 362.45 213.057 362.277C213.057 361.935 213.111 361.422 213.174 360.774C213.367 358.94 213.747 357.131 214.308 355.374C215.113 352.717 216.574 350.306 218.556 348.363C221.09 346.04 224.406 344.755 227.844 344.763C229.608 344.761 231.357 345.087 233.001 345.726C234.529 346.335 235.923 347.237 237.105 348.381C239.069 350.336 240.546 352.725 241.416 355.356C242.034 357.1 242.43 358.914 242.595 360.756C242.649 361.404 242.676 361.917 242.667 362.259C242.677 362.43 242.668 362.603 242.64 362.772Z" fill="#263238"/>
<path d="M211.185 361.386C211.311 361.386 210.798 375.921 210.042 393.84C209.286 411.759 208.557 426.24 208.431 426.24C208.305 426.24 208.809 411.705 209.574 393.786C210.339 375.867 211.059 361.377 211.185 361.386Z" fill="#263238"/>
<path d="M297.936 425.997L240.363 426.348L244.125 369.135L291.726 369.099L297.936 425.997Z" fill="#10BF80"/>
<path d="M282.825 369.459C282.78 369.459 282.771 368.829 282.609 367.704C282.402 366.114 282.016 364.553 281.457 363.051C280.67 360.819 279.384 358.796 277.695 357.138C275.577 355.15 272.769 354.066 269.865 354.114C266.966 354.102 264.166 355.167 262.008 357.102C260.305 358.748 259.035 360.788 258.309 363.042C257.795 364.562 257.421 366.125 257.193 367.713C257.022 368.838 256.959 369.459 256.923 369.459C256.902 369.307 256.902 369.152 256.923 369C256.923 368.694 256.968 368.253 257.013 367.686C257.176 366.072 257.507 364.479 258.003 362.934C258.708 360.606 259.986 358.492 261.72 356.787C263.946 354.751 266.858 353.63 269.874 353.646C272.885 353.605 275.793 354.746 277.974 356.823C279.698 358.537 280.994 360.634 281.754 362.943C282.289 364.476 282.63 366.069 282.771 367.686C282.818 368.122 282.839 368.561 282.834 369C282.854 369.153 282.851 369.307 282.825 369.459Z" fill="#263238"/>
<path d="M254.556 369.459C254.691 369.459 254.25 382.194 253.584 397.881C252.918 413.568 252.279 426.285 252.144 426.276C252.009 426.267 252.45 413.55 253.116 397.854C253.782 382.158 254.43 369.45 254.556 369.459Z" fill="#263238"/>
<path d="M306.225 276.597H306.216V44.811H138.753L138.987 281.286L138.546 292.536L146.97 286.083L155.394 292.536L163.809 286.083L172.233 292.536L180.657 286.083L189.081 292.536L197.505 286.083L205.929 292.536L214.353 286.083L222.777 292.536L231.201 286.083L239.625 292.536L248.049 286.083L256.473 292.536L264.897 286.083L273.321 292.536L281.754 286.083L290.178 292.536L298.611 286.083L307.035 292.536L306.225 276.597Z" fill="#F5F5F5"/>
<path d="M306.234 276.597C306.234 277.029 306.531 282.069 307.134 292.527V292.662L307.026 292.581L298.584 286.146H298.683L290.259 292.608L290.205 292.653L290.151 292.608L281.7 286.2H281.826L273.402 292.662L273.33 292.716L273.258 292.662L264.825 286.2H264.969L256.554 292.653L256.473 292.716L256.392 292.653L247.968 286.2H248.139L239.715 292.662L239.625 292.725L239.535 292.662L231.111 286.2H231.3L222.876 292.662L222.777 292.734L222.678 292.662L214.254 286.2H214.452L206.037 292.662L205.929 292.743L205.821 292.662L197.397 286.2H197.613L189.189 292.662L189.081 292.743L188.973 292.662L180.54 286.2H180.774L172.35 292.662L172.233 292.743L172.116 292.662L163.692 286.2H163.935L155.511 292.653L155.394 292.752L155.268 292.653C152.694 290.682 149.787 288.45 146.844 286.209H147.096L138.672 292.662L138.33 292.923V292.491C138.474 288.657 138.618 284.784 138.762 280.872C138.762 276.954 138.762 273.003 138.762 269.019C138.762 261.033 138.762 252.903 138.762 244.629C138.762 228.075 138.741 211.002 138.699 193.41C138.699 158.265 138.618 121.266 138.582 83.115C138.582 70.173 138.582 57.366 138.582 44.775V44.541H138.816H306.279H306.486V44.748C306.486 113.94 306.423 171.882 306.396 212.526C306.396 232.839 306.396 248.841 306.342 259.767C306.342 265.221 306.342 269.406 306.342 272.241C306.342 273.654 306.342 274.725 306.342 275.445C306.342 274.725 306.342 273.645 306.342 272.241C306.342 269.406 306.342 265.221 306.342 259.767C306.342 248.841 306.342 232.839 306.279 212.526C306.279 171.882 306.234 113.94 306.198 44.748L306.405 44.955H138.942L139.176 44.721C139.176 57.321 139.176 70.119 139.176 83.061C139.176 121.212 139.248 158.22 139.284 193.356C139.284 210.924 139.284 228.033 139.284 244.575C139.284 252.855 139.284 260.985 139.284 268.965C139.284 272.961 139.284 276.915 139.284 280.827C139.14 284.745 138.993 288.621 138.843 292.455L138.519 292.284L146.934 285.831L147.06 285.732L147.186 285.831L155.601 292.284H155.358L163.782 285.84L163.899 285.741L164.025 285.84L172.44 292.293H172.206L180.63 285.84L180.747 285.759L180.864 285.84L189.279 292.302H189L197.424 285.849L197.532 285.768L197.64 285.849L206.064 292.311H205.848L214.281 285.858L214.38 285.777L214.479 285.858L222.903 292.32H222.705L231.138 285.867L231.228 285.795L231.327 285.867L239.742 292.329H239.562L247.995 285.876L248.076 285.813L248.166 285.876L256.581 292.338H256.419L264.852 285.894L264.924 285.831L265.005 285.894L273.42 292.356H273.276L281.718 285.903H281.781H281.844L290.259 292.365H290.151L298.584 285.93H298.638L307.08 292.5L306.981 292.554C306.486 282.069 306.252 277.029 306.234 276.597Z" fill="#263238"/>
<path d="M174.96 145.404V150.525H180.081V145.404V140.292H174.96V145.404Z" fill="#263238"/>
<path d="M180.081 114.687H174.96V119.808H180.081V114.687Z" fill="#263238"/>
<path d="M211.716 171.054H206.595V176.175H211.716V171.054Z" fill="#263238"/>
<path d="M180.081 124.929V130.05H174.96V135.171H180.081V140.292H185.202H190.323V145.404H195.444V140.292H200.556V135.171V130.05H195.444V135.171H190.323H185.202V130.05V124.929V119.808H180.081V124.929Z" fill="#263238"/>
<path d="M190.323 114.687H185.202V119.808H190.323H195.444V114.687H190.323Z" fill="#263238"/>
<path d="M213.354 155.844H216.108V150.723H213.354H210.609V155.844H213.354Z" fill="#263238"/>
<path d="M200.565 119.808H195.444V124.929H200.565V119.808Z" fill="#263238"/>
<path d="M236.394 140.292H231.273V145.413H236.394V140.292Z" fill="#263238"/>
<path d="M241.515 83.97H236.394V89.091H241.515V83.97Z" fill="#263238"/>
<path d="M210.798 124.929V119.808H215.919V114.687H210.798V109.575H205.677V114.687H200.556V119.808H205.677V124.929V130.05V135.171V140.292H210.798V135.171V130.05H215.919V124.929H210.798Z" fill="#263238"/>
<path d="M236.394 176.121H241.515V171.009H236.394H231.273V176.121H236.394Z" fill="#263238"/>
<path d="M231.282 83.97H226.161V89.091H231.282V83.97Z" fill="#263238"/>
<path d="M229.995 124.929V119.808H224.874V114.687H219.762V119.808V124.929H214.641V130.05H219.762H224.874V124.929H229.995Z" fill="#263238"/>
<path d="M258.894 114.687H253.773V119.808H258.894V114.687Z" fill="#263238"/>
<path d="M205.83 140.292H200.709V145.413H205.83V140.292Z" fill="#263238"/>
<path d="M226.161 109.575V104.454H231.273V99.333H236.394H241.515V94.212H236.394V89.091H231.273V94.212H226.161V99.333H221.04V104.454H215.919V109.575H221.04H226.161Z" fill="#263238"/>
<path d="M226.161 145.404V140.292H231.273V135.171H226.161H221.04V140.292H215.919V145.404H221.04H226.161Z" fill="#263238"/>
<path d="M241.515 165.879V160.767H236.394H231.273V155.646H226.161V160.767H221.04V165.879H215.919H210.798V171H215.919H221.04H226.161V165.879H231.273V171H236.394V165.879H241.515Z" fill="#263238"/>
<path d="M221.04 89.091V83.97H215.919H210.798V89.091H205.677V94.212H210.798H215.919V89.091H221.04Z" fill="#263238"/>
<path d="M221.04 94.212H215.919V99.333H221.04V94.212Z" fill="#263238"/>
<path d="M233.838 114.687H228.717V119.808V124.929V130.05H233.838H238.959V124.929H233.838V119.808H238.959V114.687H244.071V109.575H238.959V104.454H233.838V109.575V114.687Z" fill="#263238"/>
<path d="M215.919 99.333H210.798V104.454H215.919V99.333Z" fill="#263238"/>
<path d="M231.273 150.525V155.646H236.394H241.515V150.525H246.636H251.757V145.404H246.636H241.515H236.394V150.525H231.273Z" fill="#263238"/>
<path d="M258.894 130.05H253.773V135.171H258.894V130.05Z" fill="#263238"/>
<path d="M241.515 135.171H236.394V140.292H241.515V135.171Z" fill="#263238"/>
<path d="M254.313 119.808H249.192H244.071V124.929H249.192V130.05H254.313V124.929V119.808Z" fill="#263238"/>
<path d="M251.757 135.171H246.636V140.292H251.757V135.171Z" fill="#263238"/>
<path d="M195.444 165.978H210.807V145.404H190.224V150.525H185.202V155.646H190.224V160.767H185.202V165.888H190.224V165.978H190.323V171H185.202V181.233H190.323V176.112H195.444V165.978ZM206.865 149.346V162.144H194.067V149.346H206.865Z" fill="#263238"/>
<path d="M261.99 145.404H267.111V140.292H261.99H256.878H251.757V145.404H256.878H261.99Z" fill="#263238"/>
<path d="M261.99 124.929H267.111V119.808V114.687H261.99V119.808V124.929Z" fill="#263238"/>
<path d="M221.229 150.723H216.108V155.844V160.965H221.229V155.844V150.723Z" fill="#263238"/>
<path d="M272.232 145.404H267.111V150.525H272.232V145.404Z" fill="#263238"/>
<path d="M272.232 135.171V130.05H267.111V135.171V140.292H272.232V135.171Z" fill="#263238"/>
<path d="M180.081 171.009H174.96V176.121V181.242H180.081V176.121V171.009Z" fill="#263238"/>
<path d="M272.232 109.575V83.97H246.6V109.575H272.232ZM250.479 105.732V87.813H268.389V105.732H250.479Z" fill="#263238"/>
<path d="M264.555 91.656H254.313V101.898H264.555V91.656Z" fill="#263238"/>
<path d="M272.232 155.646H246.6V181.242H272.196L272.232 155.646ZM250.479 177.408V159.489H268.389V177.408H250.479Z" fill="#263238"/>
<path d="M264.555 163.323H254.313V173.565H264.555V163.323Z" fill="#263238"/>
<path d="M174.897 83.97V109.575H200.493V83.97H174.897ZM196.659 87.813V105.732H178.74V87.813H196.659Z" fill="#263238"/>
<path d="M192.816 91.656H182.574V101.898H192.816V91.656Z" fill="#263238"/>
<path d="M167.598 101.817V83.637C167.487 81.9669 168 80.315 169.038 79.002C169.665 78.3107 170.437 77.7672 171.299 77.4108C172.161 77.0543 173.092 76.8939 174.024 76.941H193.14C193.279 76.9235 193.407 76.8558 193.5 76.7505C193.593 76.6453 193.644 76.5098 193.644 76.3695C193.644 76.2292 193.593 76.0937 193.5 75.9885C193.407 75.8832 193.279 75.8155 193.14 75.798H174.24C172.64 75.7138 171.053 76.1154 169.686 76.95C168.707 77.6076 167.904 78.4956 167.349 79.5361C166.793 80.5765 166.502 81.7375 166.5 82.917C166.446 85.905 166.5 88.902 166.5 91.917V101.817C166.517 101.956 166.585 102.084 166.69 102.177C166.796 102.27 166.931 102.321 167.071 102.321C167.212 102.321 167.347 102.27 167.452 102.177C167.558 102.084 167.625 101.956 167.643 101.817H167.598Z" fill="#10BF80"/>
<path d="M191.466 189.9H173.286C171.615 190.015 169.962 189.501 168.651 188.46C167.958 187.834 167.413 187.062 167.055 186.2C166.697 185.338 166.535 184.407 166.581 183.474V164.349C166.563 164.21 166.496 164.082 166.39 163.989C166.285 163.896 166.15 163.845 166.009 163.845C165.869 163.845 165.734 163.896 165.628 163.989C165.523 164.082 165.455 164.21 165.438 164.349V183.249C165.358 184.848 165.759 186.434 166.59 187.803C167.244 188.79 168.132 189.601 169.174 190.163C170.217 190.725 171.382 191.021 172.566 191.025C175.554 191.079 178.551 191.025 181.566 191.025H191.466C191.605 191.008 191.733 190.94 191.826 190.835C191.919 190.729 191.97 190.594 191.97 190.454C191.97 190.313 191.919 190.178 191.826 190.072C191.733 189.967 191.605 189.9 191.466 189.882V189.9Z" fill="#10BF80"/>
<path d="M279 164.169V182.349C279.117 184.02 278.604 185.674 277.56 186.984C276.933 187.675 276.161 188.219 275.299 188.575C274.436 188.932 273.506 189.092 272.574 189.045H253.44C253.301 189.063 253.173 189.13 253.08 189.235C252.987 189.341 252.936 189.476 252.936 189.617C252.936 189.757 252.987 189.892 253.08 189.998C253.173 190.103 253.301 190.171 253.44 190.188H272.34C273.942 190.271 275.532 189.869 276.903 189.036C277.887 188.382 278.695 187.495 279.255 186.454C279.816 185.414 280.111 184.251 280.116 183.069C280.17 180.081 280.116 177.084 280.116 174.069V164.169C280.098 164.03 280.031 163.902 279.926 163.809C279.82 163.716 279.685 163.665 279.544 163.665C279.404 163.665 279.269 163.716 279.163 163.809C279.058 163.902 278.99 164.03 278.973 164.169H279Z" fill="#10BF80"/>
<path d="M253.8 76.941H271.98C273.651 76.8236 275.305 77.3375 276.615 78.381C277.305 79.0066 277.848 79.7775 278.204 80.6381C278.561 81.4987 278.722 82.4277 278.676 83.358V102.483C278.693 102.622 278.761 102.75 278.866 102.843C278.972 102.936 279.107 102.987 279.247 102.987C279.388 102.987 279.523 102.936 279.629 102.843C279.734 102.75 279.801 102.622 279.819 102.483V83.583C279.898 81.9824 279.5 80.3945 278.676 79.02C278.022 78.0329 277.134 77.2224 276.092 76.6604C275.049 76.0984 273.884 75.8022 272.7 75.798C269.712 75.744 266.715 75.798 263.7 75.798H253.8C253.661 75.8155 253.533 75.8832 253.44 75.9885C253.347 76.0937 253.296 76.2292 253.296 76.3695C253.296 76.5098 253.347 76.6453 253.44 76.7506C253.533 76.8558 253.661 76.9235 253.8 76.941Z" fill="#10BF80"/>
<path d="M176.742 218.538L178.056 215.613C179.443 216.495 181.047 216.975 182.691 216.999C184.338 216.999 184.977 216.531 184.977 215.847C184.977 213.624 176.985 215.244 176.985 210.024C176.985 207.522 179.037 205.47 183.213 205.47C184.987 205.441 186.74 205.862 188.307 206.694L187.083 209.646C185.896 208.971 184.56 208.6 183.195 208.566C181.521 208.566 180.918 209.124 180.918 209.826C180.918 211.977 188.892 210.366 188.892 215.55C188.892 217.998 186.849 220.05 182.673 220.05C180.593 220.113 178.538 219.589 176.742 218.538Z" fill="#10BF80"/>
<path d="M189.999 212.778C189.999 208.503 193.275 205.47 197.73 205.47C198.874 205.417 200.016 205.628 201.065 206.089C202.114 206.549 203.043 207.246 203.778 208.125L201.24 210.411C200.853 209.899 200.352 209.484 199.778 209.198C199.203 208.912 198.57 208.764 197.928 208.764C196.863 208.764 195.842 209.187 195.09 209.94C194.337 210.692 193.914 211.713 193.914 212.778C193.914 213.843 194.337 214.864 195.09 215.616C195.842 216.369 196.863 216.792 197.928 216.792C198.57 216.794 199.204 216.647 199.779 216.361C200.354 216.075 200.854 215.659 201.24 215.145L203.778 217.44C203.04 218.315 202.111 219.009 201.062 219.468C200.014 219.927 198.873 220.138 197.73 220.086C193.275 220.086 189.999 217.053 189.999 212.778Z" fill="#10BF80"/>
<path d="M214.722 217.071H208.8L207.702 219.771H203.643L209.844 205.713H213.759L219.987 219.771H215.847L214.722 217.071ZM213.552 214.146L211.752 209.646L209.952 214.146H213.552Z" fill="#10BF80"/>
<path d="M234.459 205.749V219.807H231.183L225 212.319V219.807H221.103V205.749H224.379L230.58 213.237V205.749H234.459Z" fill="#10BF80"/>
<path d="M205.641 237.123C205.641 244.44 200.115 249.003 191.322 249.003H185.697V257.4H176.58V225.189H191.322C200.115 225.189 205.641 229.752 205.641 237.123ZM196.434 237.123C196.434 234.126 194.544 232.38 190.764 232.38H185.697V241.821H190.8C194.544 241.821 196.434 240.066 196.434 237.123Z" fill="#10BF80"/>
<path d="M230.049 251.172H216.414L213.885 257.472H204.579L218.817 225.225H227.817L242.1 257.4H232.587L230.049 251.172ZM227.349 244.44L223.2 234.126L219.051 244.44H227.349Z" fill="#10BF80"/>
<path d="M259.893 245.871V257.4H250.776V245.7L238.5 225.189H248.121L255.771 237.996L263.412 225.189H272.259L259.893 245.871Z" fill="#10BF80"/>
<path d="M246.996 207.495H242.181V205.749H253.8V207.495H248.976V219.807H246.987L246.996 207.495Z" fill="#10BF80"/>
<path d="M254.7 212.778C254.7 208.665 257.868 205.578 262.188 205.578C264.098 205.578 265.929 206.337 267.279 207.687C268.629 209.037 269.388 210.868 269.388 212.778C269.388 214.688 268.629 216.519 267.279 217.869C265.929 219.219 264.098 219.978 262.188 219.978C257.823 219.969 254.7 216.9 254.7 212.778ZM267.624 212.778C267.636 211.692 267.325 210.627 266.73 209.719C266.134 208.811 265.282 208.102 264.281 207.68C263.28 207.259 262.176 207.146 261.111 207.354C260.045 207.563 259.066 208.085 258.298 208.852C257.531 209.62 257.009 210.599 256.8 211.665C256.591 212.731 256.705 213.834 257.126 214.835C257.547 215.836 258.257 216.688 259.165 217.284C260.073 217.879 261.138 218.19 262.224 218.178C262.934 218.189 263.639 218.057 264.297 217.789C264.954 217.521 265.551 217.123 266.051 216.618C266.551 216.114 266.944 215.514 267.207 214.854C267.469 214.194 267.596 213.488 267.579 212.778H267.624Z" fill="#10BF80"/>
<path d="M339.237 395.622L341.037 414.522C341.037 414.522 320.427 422.226 320.202 426.033L359.172 426.141V423.297L357.543 413.568L355.131 394.668L339.237 395.622Z" fill="#455A64"/>
<path d="M352.8 411.597C353.185 411.714 353.513 411.969 353.722 412.312C353.931 412.656 354.007 413.064 353.934 413.46C353.832 413.841 353.59 414.169 353.256 414.38C352.922 414.59 352.522 414.666 352.134 414.594C351.727 414.47 351.381 414.201 351.161 413.837C350.942 413.473 350.865 413.04 350.946 412.623C351.092 412.229 351.387 411.907 351.766 411.725C352.146 411.544 352.581 411.517 352.98 411.651" fill="#E0E0E0"/>
<path d="M359.19 426.15V423.306L321.813 424.017C321.813 424.017 320.013 424.791 320.247 426.042L359.19 426.15Z" fill="#263238"/>
<path d="M340.407 414.333C340.407 414.531 341.388 414.612 342.351 415.233C343.314 415.854 343.818 416.673 343.998 416.592C344.178 416.511 343.89 415.395 342.711 414.657C341.532 413.919 340.362 414.153 340.407 414.333Z" fill="#263238"/>
<path d="M336.231 416.07C336.231 416.259 337.032 416.592 337.698 417.411C338.364 418.23 338.553 419.103 338.742 419.094C338.931 419.085 339.057 417.987 338.211 416.979C337.365 415.971 336.231 415.89 336.231 416.07Z" fill="#263238"/>
<path d="M333.9 421.083C334.08 421.128 334.35 420.183 333.846 419.085C333.342 417.987 332.433 417.6 332.352 417.762C332.271 417.924 332.829 418.491 333.252 419.373C333.675 420.255 333.675 421.065 333.9 421.083Z" fill="#263238"/>
<path d="M339.03 409.788C339.111 409.968 340.002 409.689 341.1 409.788C342.198 409.887 343.062 410.211 343.161 410.04C343.26 409.869 342.441 409.185 341.136 409.14C339.831 409.095 338.931 409.635 339.03 409.788Z" fill="#263238"/>
<path d="M387.126 396.162L388.8 414.747C388.8 414.747 368.505 422.19 368.262 425.934L406.539 426.267V423.468L405 413.901L402.75 395.325L387.126 396.162Z" fill="#455A64"/>
<path d="M400.338 411.939C400.709 412.054 401.025 412.3 401.227 412.631C401.43 412.963 401.504 413.357 401.436 413.739C401.336 414.12 401.093 414.447 400.758 414.653C400.423 414.859 400.021 414.928 399.636 414.846C399.236 414.724 398.896 414.457 398.682 414.098C398.469 413.738 398.398 413.311 398.484 412.902C398.632 412.518 398.922 412.206 399.294 412.03C399.666 411.854 400.091 411.828 400.482 411.957" fill="#E0E0E0"/>
<path d="M406.539 426.267V423.468L369.81 423.945C369.81 423.945 368.064 424.701 368.262 425.934L406.539 426.267Z" fill="#263238"/>
<path d="M388.161 414.549C388.161 414.738 389.124 414.828 390.069 415.449C391.014 416.07 391.5 416.871 391.68 416.799C391.86 416.727 391.572 415.611 390.42 414.882C389.268 414.153 388.125 414.369 388.161 414.549Z" fill="#263238"/>
<path d="M384.048 416.232C384.003 416.412 384.831 416.745 385.479 417.555C386.127 418.365 386.307 419.22 386.496 419.22C386.685 419.22 386.82 418.131 385.992 417.132C385.164 416.133 384.057 416.052 384.048 416.232Z" fill="#263238"/>
<path d="M381.699 421.137C381.87 421.182 382.14 420.237 381.654 419.175C381.168 418.113 380.268 417.708 380.187 417.87C380.106 418.032 380.664 418.59 381.087 419.454C381.51 420.318 381.51 421.119 381.699 421.137Z" fill="#263238"/>
<path d="M386.838 410.067C386.91 410.247 387.792 409.986 388.872 410.067C389.952 410.148 390.798 410.49 390.897 410.328C390.996 410.166 390.186 409.482 388.917 409.428C387.648 409.374 386.739 409.923 386.838 410.067Z" fill="#263238"/>
<path d="M338.4 231.156C338.4 231.156 329.157 257.913 328.842 277.812C328.527 297.711 328.203 329.355 332.343 364.266C336.483 399.177 338.4 413.199 338.4 413.199H359.424C360.752 399.44 361.389 385.622 361.332 371.799C361.008 352.224 359.478 346.023 361.332 324.495C363.186 302.967 366.192 290.025 369.324 283.5C369.324 283.5 378 273.186 378.639 259.038C378.903 250.068 377.418 241.133 374.265 232.731L338.4 231.156Z" fill="#263238"/>
<path d="M357.075 268.695C357.426 269.766 363.663 313.623 368.217 332.973C372.771 352.323 377.829 357.435 378.72 373.167C379.737 391.275 384.705 413.199 384.705 413.199H407.097C407.097 413.199 403.947 379.746 400.797 353.592C397.647 327.438 393.102 295.2 393.804 285.525C394.506 275.85 396.252 263.925 393.804 250.362C391.356 236.799 386.064 233.262 386.064 233.262L367.074 232.362L357.075 268.695Z" fill="#263238"/>
<path d="M378.144 243.603C378.283 243.819 378.4 244.048 378.495 244.287C378.805 244.951 379.058 245.641 379.251 246.348C379.896 248.966 380.144 251.666 379.989 254.358C379.835 258.349 379.231 262.31 378.189 266.166C377.58 268.45 376.764 270.673 375.75 272.808C374.569 275.049 373.215 277.195 371.7 279.225C368.658 283.41 367.2 288.225 366.021 292.5C365.068 296.351 364.358 300.259 363.897 304.2C363.483 307.566 363.231 310.302 363.051 312.192C362.952 313.092 362.88 313.83 362.826 314.37C362.812 314.625 362.776 314.878 362.718 315.126C362.702 314.871 362.702 314.616 362.718 314.361C362.718 313.821 362.79 313.092 362.844 312.183C362.979 310.284 363.177 307.539 363.546 304.164C363.965 300.2 364.645 296.267 365.58 292.392C366.147 290.104 366.853 287.853 367.695 285.651C368.157 284.488 368.68 283.349 369.261 282.24C369.878 281.108 370.557 280.011 371.295 278.955C372.802 276.947 374.148 274.822 375.318 272.601C376.327 270.495 377.143 268.302 377.757 266.049C378.824 262.231 379.469 258.308 379.683 254.349C379.862 251.683 379.665 249.004 379.098 246.393C378.922 245.688 378.696 244.996 378.423 244.323C378.315 244.089 378.222 243.849 378.144 243.603Z" fill="#455A64"/>
<path d="M311.049 140.4C310.997 140.245 310.887 140.116 310.743 140.04C310.491 139.932 310.221 140.157 310.032 140.355L307.854 142.668L310.005 146.745C310.785 145.908 311.3 144.859 311.486 143.73C311.672 142.601 311.52 141.443 311.049 140.4Z" fill="#FFBF9D"/>
<path d="M314.775 147.096C314.774 146.687 314.679 146.283 314.496 145.917C314.397 145.737 314.246 145.592 314.063 145.499C313.88 145.406 313.674 145.369 313.47 145.395C313.097 145.536 312.793 145.817 312.624 146.178C311.976 147.186 311.328 148.194 310.689 149.202L312.876 153.972C314.23 151.943 314.896 149.532 314.775 147.096Z" fill="#FFBF9D"/>
<path d="M315.801 153.171C315.711 152.829 315.504 152.424 315.153 152.451C314.802 152.478 314.73 152.739 314.613 152.973L313.317 155.493L315.207 158.904C316.069 157.121 316.279 155.093 315.801 153.171Z" fill="#FFBF9D"/>
<path d="M289.125 140.877L302.805 174.897C302.925 175.197 303.141 175.449 303.42 175.612C303.699 175.775 304.024 175.84 304.344 175.797L318.492 173.808C318.705 173.778 318.909 173.701 319.089 173.582C319.268 173.463 319.419 173.306 319.529 173.121C319.64 172.936 319.708 172.729 319.727 172.514C319.747 172.3 319.719 172.084 319.644 171.882L307.44 138.06C307.328 137.756 307.117 137.498 306.842 137.326C306.566 137.155 306.242 137.081 305.919 137.115L290.304 138.915C290.084 138.94 289.872 139.015 289.686 139.134C289.5 139.254 289.343 139.415 289.229 139.604C289.115 139.794 289.046 140.008 289.028 140.229C289.01 140.449 289.043 140.671 289.125 140.877Z" fill="#263238"/>
<path d="M290.7 141.039L303.615 173.16C303.648 173.242 303.708 173.31 303.785 173.354C303.861 173.398 303.95 173.416 304.038 173.403L318.438 171.369C318.495 171.362 318.55 171.341 318.599 171.31C318.647 171.279 318.688 171.237 318.718 171.188C318.748 171.139 318.767 171.083 318.773 171.026C318.779 170.968 318.772 170.91 318.753 170.856L307.233 138.951C307.2 138.87 307.142 138.802 307.068 138.756C306.993 138.711 306.906 138.691 306.819 138.699L290.997 140.499C290.938 140.508 290.882 140.53 290.833 140.564C290.784 140.598 290.743 140.643 290.715 140.695C290.686 140.748 290.669 140.806 290.667 140.865C290.664 140.925 290.676 140.984 290.7 141.039Z" fill="#455A64"/>
<path d="M299.484 153.711L299.601 153.252C299.868 153.377 300.165 153.421 300.456 153.378C300.789 153.324 300.906 153.189 300.879 153.036C300.807 152.577 299.439 153.126 299.286 152.226C299.214 151.803 299.493 151.407 300.186 151.326C300.487 151.265 300.799 151.29 301.086 151.398L300.978 151.857C300.752 151.77 300.507 151.742 300.267 151.776C299.934 151.839 299.826 151.983 299.853 152.136C299.925 152.586 301.293 152.037 301.446 152.937C301.518 153.342 301.23 153.747 300.546 153.837C300.188 153.911 299.815 153.867 299.484 153.711Z" fill="white"/>
<path d="M301.59 152.352C301.559 152.18 301.564 152.004 301.605 151.835C301.645 151.665 301.72 151.506 301.825 151.367C301.929 151.227 302.062 151.111 302.213 151.025C302.365 150.939 302.533 150.885 302.706 150.867C302.894 150.828 303.088 150.832 303.275 150.877C303.462 150.922 303.636 151.008 303.786 151.128L303.48 151.533C303.391 151.453 303.284 151.395 303.169 151.362C303.053 151.329 302.932 151.323 302.814 151.344C302.711 151.361 302.613 151.398 302.524 151.454C302.436 151.509 302.359 151.581 302.299 151.666C302.238 151.75 302.195 151.846 302.171 151.948C302.148 152.049 302.144 152.155 302.161 152.257C302.179 152.36 302.216 152.459 302.271 152.547C302.326 152.636 302.398 152.712 302.483 152.773C302.568 152.834 302.664 152.877 302.765 152.9C302.867 152.924 302.972 152.927 303.075 152.91C303.193 152.891 303.305 152.845 303.403 152.776C303.502 152.708 303.583 152.618 303.642 152.514L304.065 152.793C303.918 153.017 303.709 153.192 303.463 153.298C303.217 153.403 302.946 153.435 302.682 153.388C302.419 153.341 302.175 153.218 301.981 153.034C301.787 152.85 301.651 152.613 301.59 152.352Z" fill="white"/>
<path d="M306 152.334L304.866 152.523L304.74 153.09L304.155 153.18L304.839 150.552L305.397 150.462L306.9 152.73L306.306 152.829L306 152.334ZM305.757 151.938L305.208 151.038L304.974 152.037L305.757 151.938Z" fill="white"/>
<path d="M308.979 149.859L309.384 152.307L308.916 152.388L307.449 151.101L307.701 152.586L307.143 152.685L306.729 150.237L307.197 150.156L308.664 151.443L308.412 149.958L308.979 149.859Z" fill="white"/>
<path d="M292.356 160.92L293.868 145.251C293.868 145.251 296.172 145.251 296.856 148.581C297.327 151.591 297.568 154.633 297.576 157.68C297.576 157.68 301.653 159.579 302.85 169.38L305.622 172.737L299.187 179.181C299.187 179.181 292.599 166.446 292.356 160.92Z" fill="#FFBF9D"/>
<path d="M311.121 161.397L303.534 162.729C303.149 162.795 302.752 162.724 302.413 162.529C302.075 162.333 301.815 162.025 301.68 161.658C301.596 161.43 301.563 161.186 301.583 160.943C301.604 160.701 301.677 160.466 301.798 160.255C301.919 160.044 302.085 159.862 302.284 159.722C302.482 159.582 302.71 159.487 302.949 159.444L310.536 158.103C310.893 158.035 311.263 158.086 311.588 158.248C311.914 158.411 312.176 158.676 312.336 159.003C312.454 159.236 312.515 159.494 312.515 159.755C312.515 160.017 312.453 160.275 312.335 160.508C312.217 160.741 312.045 160.943 311.834 161.097C311.623 161.252 311.379 161.354 311.121 161.397Z" fill="#10BF80"/>
<path d="M304.551 148.5C304.551 148.626 303.93 148.824 303.093 148.941C302.744 148.99 302.392 149.017 302.04 149.022V148.68L302.319 148.734V148.959C302.202 148.959 302.139 148.887 302.139 148.851C302.139 148.815 302.202 148.77 302.319 148.734V148.959L302.049 149.022V148.68C302.383 148.589 302.723 148.52 303.066 148.473C303.849 148.365 304.524 148.374 304.551 148.5Z" fill="white"/>
<path d="M309.735 154.413C308.325 154.909 306.869 155.262 305.388 155.466C303.936 155.814 302.452 156.01 300.96 156.051C302.369 155.552 303.826 155.199 305.307 154.998C306.759 154.65 308.243 154.454 309.735 154.413Z" fill="white"/>
<path d="M388.854 123.165C386.982 110.187 383.67 95.949 365.13 97.272C365.13 97.272 355.23 99.126 349.83 107.559C346.635 112.518 351.972 145.746 356.175 158.616L391.122 161.37L396.999 159.624C396.999 159.624 390.015 131.229 388.854 123.165Z" fill="#263238"/>
<path d="M362.7 102.105L363.861 100.998L376.398 106.047C377.273 106.096 378.099 106.472 378.71 107.1C379.322 107.729 379.675 108.564 379.701 109.44L379.557 150.3C379.691 152.939 378.909 155.543 377.343 157.671L375.543 159.993C374.624 161.223 373.412 162.205 372.018 162.85C370.624 163.495 369.091 163.782 367.558 163.685C366.025 163.589 364.54 163.112 363.238 162.297C361.936 161.483 360.857 160.357 360.099 159.021C359.904 158.692 359.756 158.338 359.658 157.968C359.575 157.672 359.512 157.372 359.469 157.068C359.1 153.783 359.073 150.939 359.073 150.939C358.848 147.339 358.776 145.845 358.776 145.881C358.776 145.917 351.099 144.981 349.029 135.144C347.994 130.248 348.192 123.507 348.48 116.874C348.921 107.64 355.284 102.096 362.7 102.105Z" fill="#FFBF9D"/>
<path d="M363.483 124.2C363.499 124.532 363.643 124.845 363.885 125.073C364.126 125.301 364.447 125.427 364.779 125.424C364.942 125.429 365.104 125.401 365.256 125.342C365.409 125.283 365.547 125.195 365.665 125.082C365.782 124.968 365.876 124.833 365.94 124.683C366.004 124.533 366.038 124.372 366.039 124.209C366.023 123.877 365.879 123.564 365.637 123.336C365.396 123.108 365.075 122.982 364.743 122.985C364.58 122.98 364.418 123.008 364.266 123.067C364.114 123.126 363.975 123.214 363.857 123.327C363.74 123.441 363.646 123.576 363.582 123.726C363.518 123.876 363.484 124.037 363.483 124.2Z" fill="#263238"/>
<path d="M350.757 124.596C350.771 124.929 350.914 125.243 351.156 125.471C351.398 125.7 351.72 125.825 352.053 125.82C352.216 125.825 352.377 125.797 352.529 125.738C352.681 125.679 352.819 125.59 352.935 125.477C353.052 125.364 353.145 125.228 353.208 125.078C353.272 124.929 353.304 124.768 353.304 124.605C353.292 124.273 353.151 123.959 352.91 123.73C352.67 123.501 352.349 123.376 352.017 123.381C351.854 123.376 351.692 123.404 351.54 123.463C351.388 123.522 351.249 123.61 351.131 123.723C351.014 123.837 350.92 123.972 350.856 124.122C350.792 124.272 350.758 124.433 350.757 124.596Z" fill="#263238"/>
<path d="M349.83 119.448C349.992 119.61 350.919 118.845 352.296 118.782C353.673 118.719 354.699 119.349 354.843 119.178C354.987 119.007 354.735 118.809 354.285 118.512C353.673 118.126 352.955 117.944 352.233 117.99C351.52 118.021 350.835 118.28 350.28 118.728C349.875 119.07 349.74 119.376 349.83 119.448Z" fill="#263238"/>
<path d="M363.735 119.592C363.915 119.736 364.77 118.881 366.12 118.692C367.47 118.503 368.577 119.007 368.703 118.818C368.829 118.629 368.559 118.467 368.073 118.215C367.423 117.897 366.69 117.79 365.976 117.909C365.276 118.006 364.624 118.321 364.113 118.809C363.744 119.214 363.645 119.529 363.735 119.592Z" fill="#263238"/>
<path d="M358.947 129.6C358.213 129.404 357.457 129.304 356.697 129.303C356.346 129.303 356.013 129.231 355.941 128.997C355.898 128.639 355.961 128.276 356.121 127.953L357.021 125.253C358.263 121.383 359.145 118.215 358.992 118.161C358.839 118.107 357.696 121.212 356.454 125.073L355.599 127.773C355.396 128.203 355.354 128.692 355.482 129.15C355.54 129.271 355.624 129.377 355.729 129.461C355.833 129.545 355.955 129.605 356.085 129.636C356.28 129.678 356.48 129.697 356.679 129.69C357.436 129.749 358.197 129.718 358.947 129.6Z" fill="#263238"/>
<path d="M358.812 145.8C363.492 145.639 368.035 144.181 371.934 141.588C371.934 141.588 368.937 148.626 358.947 148.203L358.812 145.8Z" fill="#FF9A6C"/>
<path d="M359.694 132.84C359.939 132.5 360.267 132.227 360.646 132.048C361.026 131.868 361.444 131.788 361.863 131.814C362.166 131.827 362.462 131.901 362.736 132.031C363.01 132.161 363.254 132.344 363.456 132.57C363.652 132.788 363.776 133.062 363.812 133.353C363.847 133.645 363.792 133.94 363.654 134.199C363.444 134.461 363.16 134.654 362.839 134.752C362.518 134.85 362.174 134.849 361.854 134.748C361.196 134.55 360.584 134.222 360.054 133.785C359.891 133.685 359.75 133.554 359.64 133.398C359.59 133.324 359.563 133.236 359.563 133.146C359.563 133.056 359.59 132.968 359.64 132.894" fill="#FF9A6C"/>
<path d="M363.033 130.32C362.808 130.32 362.88 131.805 361.656 132.921C360.432 134.037 358.848 133.956 358.839 134.163C358.83 134.37 359.208 134.442 359.883 134.424C360.754 134.393 361.586 134.055 362.232 133.47C362.855 132.907 363.233 132.122 363.285 131.283C363.312 130.662 363.132 130.302 363.033 130.32Z" fill="#263238"/>
<path d="M362.421 114.246C362.61 114.597 363.942 114.246 365.562 114.165C367.182 114.084 368.541 114.345 368.694 113.985C368.766 113.814 368.496 113.499 367.92 113.22C367.164 112.877 366.337 112.723 365.508 112.77C364.679 112.796 363.868 113.018 363.141 113.418C362.592 113.751 362.34 114.084 362.421 114.246Z" fill="#263238"/>
<path d="M350.019 113.562C350.28 113.859 351.207 113.49 352.341 113.418C353.475 113.346 354.447 113.517 354.654 113.184C354.744 113.022 354.573 112.716 354.141 112.446C353.565 112.109 352.897 111.964 352.233 112.032C351.575 112.083 350.948 112.331 350.433 112.743C350.028 113.085 349.911 113.4 350.019 113.562Z" fill="#263238"/>
<path d="M379.413 126.9C379.413 126.9 372.393 129.087 368.415 111.762C367.065 105.831 361.566 101.034 361.566 101.034L363.798 100.368C363.798 100.368 377.64 104.265 377.874 104.436C378.108 104.607 381.366 111.636 381.366 111.636L379.413 126.9Z" fill="#263238"/>
<path d="M377.685 126.216C377.685 125.478 378.414 123.696 379.143 123.516C381.078 123.111 384.597 123.093 384.876 128.016C385.263 134.784 378.387 133.776 378.369 133.587C378.351 133.398 377.802 128.772 377.685 126.216Z" fill="#FFBF9D"/>
<path d="M380.286 130.959C380.286 130.959 380.412 131.031 380.619 131.112C380.761 131.172 380.914 131.203 381.069 131.203C381.224 131.203 381.377 131.172 381.519 131.112C382.212 130.815 382.752 129.645 382.716 128.412C382.7 127.83 382.555 127.258 382.293 126.738C382.22 126.535 382.1 126.353 381.944 126.204C381.788 126.056 381.599 125.946 381.393 125.883C381.254 125.856 381.11 125.878 380.985 125.945C380.86 126.012 380.763 126.121 380.709 126.252C380.628 126.441 380.709 126.576 380.646 126.594C380.583 126.612 380.493 126.486 380.538 126.207C380.562 126.037 380.645 125.881 380.772 125.766C380.951 125.612 381.184 125.534 381.42 125.55C381.7 125.591 381.965 125.703 382.19 125.875C382.415 126.046 382.593 126.272 382.707 126.531C383.03 127.1 383.21 127.74 383.229 128.394C383.229 129.762 382.635 131.094 381.672 131.418C381.493 131.48 381.303 131.502 381.114 131.482C380.926 131.462 380.745 131.4 380.583 131.301C380.313 131.121 380.268 130.968 380.286 130.959Z" fill="#FF9A6C"/>
<path d="M331.533 166.797C333.918 170.613 336.222 177.534 336.222 177.534L330.129 185.472C330.129 185.472 319.806 180.072 316.872 178.344C316.112 177.856 315.25 177.548 314.352 177.444C313.991 177.407 313.654 177.243 313.403 176.981C313.151 176.719 313.001 176.376 312.98 176.013C312.958 175.65 313.066 175.292 313.285 175.002C313.503 174.712 313.818 174.509 314.172 174.429C315.109 174.435 316.041 174.58 316.935 174.861C317.997 175.25 319.128 175.413 320.256 175.338C320.256 175.338 319.761 174.78 318.789 173.394C317.817 172.008 312.975 167.049 311.463 164.655C309.537 161.604 310.338 159.768 311.391 160.155C312.696 160.659 318.528 168.642 319.491 168.336C319.491 168.336 320.346 166.752 321.345 166.536C322.01 166.403 322.696 166.403 323.361 166.536C323.361 166.536 323.469 165.069 324.405 164.664C325.153 164.425 325.959 164.438 326.7 164.7C326.7 164.7 326.799 163.341 327.537 163.17C328.275 162.999 329.742 163.926 331.533 166.797Z" fill="#FFBF9D"/>
<path d="M306.495 171.945C306.612 172.305 323.253 189.342 323.253 189.342C323.253 189.342 337.14 173.7 341.37 167.94C345.6 162.18 349.839 155.133 355.356 153.81C360.873 152.487 367.803 155.7 367.803 155.7L360.945 176.157L348.597 193.122C348.597 193.122 335.268 209.871 328.923 212.463C322.578 215.055 316.323 211.329 313.623 208.512C310.923 205.695 294.903 181.341 294.903 181.341L306.495 171.945Z" fill="#10BF80"/>
<path d="M379.899 233.856L337.797 231.516C337.797 231.516 342.297 211.869 346.311 192.195C350.325 172.521 360.9 153.81 360.9 153.81L399.195 160.443C399.195 160.443 400.572 171.036 395.82 190.359C393.633 199.269 388.476 209.61 383.418 222.237L388.467 234.333L379.881 233.856" fill="#10BF80"/>
<path d="M360 179.154C359.826 179.456 359.617 179.737 359.379 179.991L357.579 182.178C356.058 184.032 353.979 186.624 351.729 189.477C349.479 192.33 347.346 194.877 345.762 196.677C344.97 197.577 344.322 198.297 343.854 198.774C343.629 199.044 343.372 199.285 343.089 199.494C343.267 199.195 343.475 198.914 343.71 198.657C344.205 198.063 344.799 197.325 345.51 196.461C347.022 194.607 349.11 192.024 351.36 189.162C353.61 186.3 355.734 183.762 357.318 181.962C358.11 181.062 358.767 180.342 359.235 179.856C359.463 179.594 359.72 179.359 360 179.154Z" fill="#263238"/>
<path d="M381.528 221.805C380.471 221.749 379.418 221.623 378.378 221.427C376.443 221.157 373.761 220.797 370.8 220.482C367.839 220.167 365.139 219.969 363.186 219.834C362.128 219.811 361.072 219.714 360.027 219.546C360.323 219.483 360.626 219.462 360.927 219.483C361.476 219.483 362.268 219.483 363.249 219.483C365.211 219.528 367.92 219.69 370.89 219.996C373.86 220.302 376.551 220.725 378.477 221.085C379.44 221.265 380.214 221.418 380.754 221.544C381.022 221.598 381.282 221.685 381.528 221.805Z" fill="#263238"/>
<path d="M398.898 157.887C397.791 153.801 394.857 151.488 394.029 147.339C393.318 143.739 395.136 139.527 394.452 135.945C393.768 132.363 392.157 129.708 391.041 126.324C390.078 123.417 388.755 120.6 388.233 117.585C388.05 115.822 387.77 114.07 387.396 112.338C386.901 110.637 384.894 107.775 380.745 101.88L368.901 113.679C370.701 122.598 374.229 124.803 374.13 130.302C374.13 132.399 373.644 134.586 374.382 136.557C375.003 138.204 376.425 139.554 376.623 141.309C376.893 143.694 374.823 145.71 374.382 148.077C373.941 150.444 375.282 152.919 375.678 155.394C376.245 159.183 374.436 162.882 373.752 166.653C373.298 168.468 373.516 170.386 374.364 172.053C375.741 174.267 378.594 174.951 381.159 175.428C383.193 175.815 385.326 176.193 387.288 175.554C389.25 174.915 390.888 172.854 390.42 170.883C390.915 172.197 391.419 173.502 391.914 174.816C392.997 175.182 394.166 175.201 395.26 174.87C396.354 174.539 397.317 173.875 398.016 172.971C399.447 171.171 398.736 169.065 398.592 166.788C398.448 164.511 399.483 160.092 398.898 157.887Z" fill="#263238"/>
<path d="M389.304 168.669C390.016 167.999 390.582 167.191 390.969 166.293C391.402 165.23 391.619 164.092 391.608 162.945C391.573 161.424 391.269 159.922 390.708 158.508C390.123 156.915 389.277 155.259 388.44 153.432C387.478 151.494 386.868 149.401 386.64 147.249C386.566 146.07 386.703 144.888 387.045 143.757C387.446 142.637 387.747 141.483 387.945 140.31C388.063 139.111 387.715 137.912 386.973 136.962C386.179 135.98 385.273 135.095 384.273 134.325C383.244 133.529 382.335 132.589 381.573 131.535C380.858 130.449 380.491 129.172 380.52 127.872C380.52 125.361 381.285 123.057 381.087 120.852C380.845 118.756 379.823 116.829 378.225 115.452C376.855 114.211 375.376 113.097 373.806 112.122C370.935 110.322 368.838 108.342 367.929 106.623C367.56 105.983 367.29 105.291 367.128 104.571C367.083 104.319 367.065 104.13 367.047 104.004C367.039 103.938 367.039 103.872 367.047 103.806C367.245 104.757 367.598 105.669 368.091 106.506C368.991 108.162 371.124 110.025 373.995 111.825C375.594 112.791 377.1 113.903 378.495 115.146C380.176 116.577 381.255 118.589 381.519 120.78C381.726 123.102 380.97 125.433 380.979 127.827C380.952 129.037 381.294 130.227 381.96 131.238C382.71 132.259 383.601 133.168 384.606 133.938C385.639 134.725 386.575 135.632 387.396 136.638C388.202 137.679 388.576 138.991 388.44 140.301C388.253 141.506 387.952 142.69 387.54 143.838C387.203 144.917 387.066 146.049 387.135 147.177C387.329 149.29 387.893 151.352 388.8 153.27C389.619 155.07 390.456 156.771 391.023 158.4C391.578 159.851 391.865 161.391 391.869 162.945C391.86 164.123 391.612 165.286 391.14 166.365C390.836 167.034 390.416 167.644 389.898 168.165C389.723 168.359 389.523 168.528 389.304 168.669Z" fill="#455A64"/>
</svg>
