<svg xmlns="http://www.w3.org/2000/svg" viewBox="0 0 750 500"><g id="freepik--background-simple--inject-8"><path d="M680.06,324.94s24.22-147.18-62.82-226.27c-76.84-69.82-194.66-93.11-287-28.54-32.92,23-72,46.56-111,61.21-43.71,16.42-92.45,21.36-130.9,85.23s-12,164.91,44.82,204.91,156.74,35.93,243.19,29S642.55,506.91,680.06,324.94Z" style="fill:#10BF80"></path><path d="M680.06,324.94s24.22-147.18-62.82-226.27c-76.84-69.82-194.66-93.11-287-28.54-32.92,23-72,46.56-111,61.21-43.71,16.42-92.45,21.36-130.9,85.23s-12,164.91,44.82,204.91,156.74,35.93,243.19,29S642.55,506.91,680.06,324.94Z" style="fill:#fff;opacity:0.7000000000000001"></path></g><g id="freepik--Shelf--inject-8"><rect x="96.78" y="236.99" width="250.2" height="187.05" style="fill:none;stroke:#ababab;stroke-miterlimit:10"></rect><rect x="96.78" y="295.26" width="250.2" height="8.52" style="fill:none;stroke:#ababab;stroke-miterlimit:10"></rect><path d="M107,350.73s13-16.49,32-15.49,22.49,16,22.49,16H101Z" style="fill:none;stroke:#ababab;stroke-miterlimit:10"></path><path d="M123.53,352.73S127,335.24,139,335.24" style="fill:none;stroke:#ababab;stroke-miterlimit:10"></path><path d="M142,351.73s1.5-13.49,12-11.49" style="fill:none;stroke:#ababab;stroke-miterlimit:10"></path><path d="M193.5,350.73s13-16.49,32-15.49,22.49,16,22.49,16H187.5Z" style="fill:none;stroke:#ababab;stroke-miterlimit:10"></path><path d="M210,352.73s3.5-17.49,15.5-17.49" style="fill:none;stroke:#ababab;stroke-miterlimit:10"></path><path d="M228.49,351.73s1.5-13.49,12-11.49" style="fill:none;stroke:#ababab;stroke-miterlimit:10"></path><path d="M280,350.73s13-16.49,32-15.49,22.49,16,22.49,16H274Z" style="fill:none;stroke:#ababab;stroke-miterlimit:10"></path><path d="M296.46,352.73S300,335.24,312,335.24" style="fill:none;stroke:#ababab;stroke-miterlimit:10"></path><path d="M315,351.73s1.5-13.49,12-11.49" style="fill:none;stroke:#ababab;stroke-miterlimit:10"></path><rect x="96.78" y="351.25" width="250.2" height="8.52" style="fill:none;stroke:#ababab;stroke-miterlimit:10"></rect><rect x="96.78" y="236.99" width="250.2" height="8.5" style="fill:none;stroke:#ababab;stroke-miterlimit:10"></rect><rect x="96.78" y="399.26" width="250.2" height="24.79" style="fill:none;stroke:#ababab;stroke-miterlimit:10"></rect><rect x="110.53" y="265.77" width="33.99" height="29.99" style="fill:none;stroke:#ababab;stroke-miterlimit:10"></rect><rect x="110.53" y="265.77" width="33.99" height="4.41" style="fill:none;stroke:#ababab;stroke-miterlimit:10"></rect><rect x="175.01" y="265.77" width="104.46" height="29.99" style="fill:none;stroke:#ababab;stroke-miterlimit:10"></rect><rect x="175.01" y="265.77" width="104.46" height="4.41" style="fill:none;stroke:#ababab;stroke-miterlimit:10"></rect><rect x="223.49" y="265.77" width="28.49" height="29.99" style="fill:none;stroke:#ababab;stroke-miterlimit:10"></rect><rect x="223.49" y="265.77" width="28.49" height="4.41" style="fill:none;stroke:#ababab;stroke-miterlimit:10"></rect></g><g id="freepik--Menu--inject-8"><rect x="368.51" y="82.42" width="162.86" height="218.53" style="fill:none;stroke:#ababab;stroke-miterlimit:10"></rect><line x1="387.06" y1="138.08" x2="444.46" y2="138.08" style="fill:none;stroke:#ababab;stroke-miterlimit:10"></line><line x1="387.06" y1="162.82" x2="444.46" y2="162.82" style="fill:none;stroke:#ababab;stroke-miterlimit:10"></line><line x1="387.06" y1="187.56" x2="444.46" y2="187.56" style="fill:none;stroke:#ababab;stroke-miterlimit:10"></line><line x1="387.06" y1="212.3" x2="444.46" y2="212.3" style="fill:none;stroke:#ababab;stroke-miterlimit:10"></line><line x1="387.06" y1="237.04" x2="444.46" y2="237.04" style="fill:none;stroke:#ababab;stroke-miterlimit:10"></line><line x1="387.06" y1="261.78" x2="444.46" y2="261.78" style="fill:none;stroke:#ababab;stroke-miterlimit:10"></line><line x1="456.45" y1="138.08" x2="513.85" y2="138.08" style="fill:none;stroke:#ababab;stroke-miterlimit:10"></line><line x1="456.45" y1="162.82" x2="513.85" y2="162.82" style="fill:none;stroke:#ababab;stroke-miterlimit:10"></line><line x1="456.45" y1="187.56" x2="513.85" y2="187.56" style="fill:none;stroke:#ababab;stroke-miterlimit:10"></line><line x1="456.45" y1="212.3" x2="513.85" y2="212.3" style="fill:none;stroke:#ababab;stroke-miterlimit:10"></line><line x1="456.45" y1="237.04" x2="513.85" y2="237.04" style="fill:none;stroke:#ababab;stroke-miterlimit:10"></line><line x1="456.45" y1="261.78" x2="513.85" y2="261.78" style="fill:none;stroke:#ababab;stroke-miterlimit:10"></line><path d="M422.46,122.66a7.17,7.17,0,0,1-4-1,5,5,0,0,1-2.05-2.64,11.67,11.67,0,0,1-.59-3.92V107a12.12,12.12,0,0,1,.59-4,4.9,4.9,0,0,1,2.05-2.61,7.44,7.44,0,0,1,4-.92,7.54,7.54,0,0,1,3.81.81,4.46,4.46,0,0,1,2,2.29,9.52,9.52,0,0,1,.57,3.43v1.9h-4.46v-2.12a11.11,11.11,0,0,0-.09-1.46,2,2,0,0,0-.46-1.12,1.64,1.64,0,0,0-1.3-.43,1.8,1.8,0,0,0-1.34.44,2.19,2.19,0,0,0-.53,1.16,10.88,10.88,0,0,0-.11,1.58v10.27a7.36,7.36,0,0,0,.16,1.66,1.89,1.89,0,0,0,.58,1.09,1.84,1.84,0,0,0,1.24.38,1.6,1.6,0,0,0,1.27-.43,2.16,2.16,0,0,0,.48-1.16,12.58,12.58,0,0,0,.1-1.54V114h4.46v1.87a9.93,9.93,0,0,1-.56,3.5,4.65,4.65,0,0,1-1.92,2.4A7.08,7.08,0,0,1,422.46,122.66Z" style="fill:#ababab"></path><path d="M436.47,122.63a6.57,6.57,0,0,1-3-.62,4.22,4.22,0,0,1-1.86-1.83,6.52,6.52,0,0,1-.62-3v-5.81a6.48,6.48,0,0,1,.62-3,4.22,4.22,0,0,1,1.86-1.83,7.27,7.27,0,0,1,5.92,0,4.29,4.29,0,0,1,1.87,1.83,6.23,6.23,0,0,1,.64,3v5.81a6.27,6.27,0,0,1-.64,3,4.29,4.29,0,0,1-1.87,1.83A6.57,6.57,0,0,1,436.47,122.63Zm0-2.84a1.06,1.06,0,0,0,.81-.3,1.45,1.45,0,0,0,.36-.81,7,7,0,0,0,.08-1.18v-6.4a7.08,7.08,0,0,0-.08-1.2,1.59,1.59,0,0,0-.36-.81,1.06,1.06,0,0,0-.81-.3,1,1,0,0,0-.81.3,1.7,1.7,0,0,0-.38.81,6.91,6.91,0,0,0-.1,1.2v6.4a6.84,6.84,0,0,0,.1,1.18,1.54,1.54,0,0,0,.38.81A1,1,0,0,0,436.5,119.79Z" style="fill:#ababab"></path><path d="M445.15,122.36V109.09h-1.62v-2.87h1.62V105.1a9.28,9.28,0,0,1,.3-2.51,2.78,2.78,0,0,1,1.18-1.65,5.1,5.1,0,0,1,2.74-.58l1.05,0c.32,0,.69.06,1.1.12v3.12l-.49-.1a4.73,4.73,0,0,0-.52,0,1,1,0,0,0-.86.35,1.73,1.73,0,0,0-.28,1.1v1.29h2.15v2.87h-2.15v13.27Zm7.9,0V109.09h-1.62v-2.87h1.62V105.1a9.28,9.28,0,0,1,.3-2.51,2.78,2.78,0,0,1,1.18-1.65,5.1,5.1,0,0,1,2.74-.58l1.05,0c.32,0,.69.06,1.1.12v3.12l-.49-.1a4.73,4.73,0,0,0-.52,0,1,1,0,0,0-.86.35,1.73,1.73,0,0,0-.28,1.1v1.29h2.15v2.87h-2.15v13.27Z" style="fill:#ababab"></path><path d="M466.26,122.63a6.15,6.15,0,0,1-3-.65,4.24,4.24,0,0,1-1.81-1.93,7,7,0,0,1-.62-3.06v-5.41a6.94,6.94,0,0,1,.62-3.09,4.2,4.2,0,0,1,1.84-1.89,6.16,6.16,0,0,1,3-.66,5.86,5.86,0,0,1,3,.67,4.09,4.09,0,0,1,1.69,2,8.09,8.09,0,0,1,.54,3.13v2.82H465v3.13a3.36,3.36,0,0,0,.16,1.14,1.13,1.13,0,0,0,.43.63,1.41,1.41,0,0,0,1.38,0,1,1,0,0,0,.43-.57,3,3,0,0,0,.14-1v-1.53h3.91v1.34a5,5,0,0,1-1.34,3.74A5.33,5.33,0,0,1,466.26,122.63ZM465,112.5h2.54v-1.59a3.54,3.54,0,0,0-.14-1.13,1,1,0,0,0-.43-.62,1.37,1.37,0,0,0-.74-.18,1.1,1.1,0,0,0-.68.2,1.28,1.28,0,0,0-.41.68,5.46,5.46,0,0,0-.14,1.38Z" style="fill:#ababab"></path><path d="M479.1,122.63a6.15,6.15,0,0,1-3-.65,4.24,4.24,0,0,1-1.81-1.93,7,7,0,0,1-.62-3.06v-5.41a6.94,6.94,0,0,1,.62-3.09,4.2,4.2,0,0,1,1.84-1.89,6.19,6.19,0,0,1,3-.66,5.86,5.86,0,0,1,3,.67,4.09,4.09,0,0,1,1.69,2,8.09,8.09,0,0,1,.54,3.13v2.82h-6.48v3.13a3.63,3.63,0,0,0,.16,1.14,1.18,1.18,0,0,0,.43.63,1.28,1.28,0,0,0,.7.18,1.25,1.25,0,0,0,.68-.18,1.08,1.08,0,0,0,.44-.57,3.26,3.26,0,0,0,.14-1v-1.53h3.9v1.34a4.92,4.92,0,0,1-1.34,3.74A5.31,5.31,0,0,1,479.1,122.63Zm-1.26-10.13h2.55v-1.59a3.85,3.85,0,0,0-.14-1.13,1.1,1.1,0,0,0-.44-.62,1.37,1.37,0,0,0-.74-.18,1.12,1.12,0,0,0-.68.2,1.28,1.28,0,0,0-.41.68,5.46,5.46,0,0,0-.14,1.38Z" style="fill:#ababab"></path><rect x="542.54" y="155.69" width="125.91" height="145.25" style="fill:none;stroke:#ababab;stroke-miterlimit:10"></rect><line x1="556.88" y1="175.04" x2="601.26" y2="175.04" style="fill:none;stroke:#ababab;stroke-miterlimit:10"></line><line x1="556.88" y1="194.17" x2="601.26" y2="194.17" style="fill:none;stroke:#ababab;stroke-miterlimit:10"></line><line x1="556.88" y1="213.29" x2="601.26" y2="213.29" style="fill:none;stroke:#ababab;stroke-miterlimit:10"></line><line x1="556.88" y1="232.42" x2="601.26" y2="232.42" style="fill:none;stroke:#ababab;stroke-miterlimit:10"></line><line x1="556.88" y1="251.54" x2="601.26" y2="251.54" style="fill:none;stroke:#ababab;stroke-miterlimit:10"></line><line x1="556.88" y1="270.67" x2="601.26" y2="270.67" style="fill:none;stroke:#ababab;stroke-miterlimit:10"></line><line x1="610.53" y1="175.04" x2="654.9" y2="175.04" style="fill:none;stroke:#ababab;stroke-miterlimit:10"></line><line x1="610.53" y1="194.17" x2="654.9" y2="194.17" style="fill:none;stroke:#ababab;stroke-miterlimit:10"></line><line x1="610.53" y1="213.29" x2="654.9" y2="213.29" style="fill:none;stroke:#ababab;stroke-miterlimit:10"></line><line x1="610.53" y1="232.42" x2="654.9" y2="232.42" style="fill:none;stroke:#ababab;stroke-miterlimit:10"></line><line x1="610.53" y1="251.54" x2="654.9" y2="251.54" style="fill:none;stroke:#ababab;stroke-miterlimit:10"></line><line x1="610.53" y1="270.67" x2="654.9" y2="270.67" style="fill:none;stroke:#ababab;stroke-miterlimit:10"></line></g><g id="freepik--Lamps--inject-8"><path d="M175,110.13l-12.11-17.3h-47.4l-12.11,17.3a52,52,0,0,0,1.86,62.08l5.61,7.07h56.69l5.61-7.07A52,52,0,0,0,175,110.13Z" style="fill:#fff;stroke:#263238;stroke-linecap:round;stroke-linejoin:round"></path><line x1="103.36" y1="110.13" x2="125.62" y2="110.13" style="fill:none;stroke:#263238;stroke-linecap:round;stroke-linejoin:round"></line><line x1="150.24" y1="117.22" x2="131.48" y2="117.22" style="fill:none;stroke:#263238;stroke-linecap:round;stroke-linejoin:round"></line><line x1="183.64" y1="150.04" x2="139.69" y2="150.04" style="fill:none;stroke:#263238;stroke-linecap:round;stroke-linejoin:round"></line><line x1="103.35" y1="149.45" x2="120.35" y2="149.45" style="fill:none;stroke:#263238;stroke-linecap:round;stroke-linejoin:round"></line><line x1="161.96" y1="140.66" x2="148.48" y2="140.66" style="fill:none;stroke:#263238;stroke-linecap:round;stroke-linejoin:round"></line><line x1="120.93" y1="162.34" x2="132.66" y2="162.34" style="fill:none;stroke:#263238;stroke-linecap:round;stroke-linejoin:round"></line><line x1="165.47" y1="98.47" x2="155.51" y2="98.47" style="fill:none;stroke:#263238;stroke-linecap:round;stroke-linejoin:round"></line><line x1="139.17" y1="92.75" x2="139.17" y2="25.65" style="fill:none;stroke:#263238;stroke-linecap:round;stroke-linejoin:round"></line><path d="M390.61,110.13,378.5,92.83H331.1L319,110.13a52,52,0,0,0,1.86,62.08l5.61,7.07h56.68l5.61-7.07A52,52,0,0,0,390.61,110.13Z" style="fill:#fff;stroke:#263238;stroke-linecap:round;stroke-linejoin:round"></path><line x1="318.99" y1="110.13" x2="341.25" y2="110.13" style="fill:none;stroke:#263238;stroke-linecap:round;stroke-linejoin:round"></line><line x1="365.86" y1="117.22" x2="347.11" y2="117.22" style="fill:none;stroke:#263238;stroke-linecap:round;stroke-linejoin:round"></line><line x1="399.27" y1="150.04" x2="355.31" y2="150.04" style="fill:none;stroke:#263238;stroke-linecap:round;stroke-linejoin:round"></line><line x1="318.98" y1="149.45" x2="335.97" y2="149.45" style="fill:none;stroke:#263238;stroke-linecap:round;stroke-linejoin:round"></line><line x1="377.58" y1="140.66" x2="364.1" y2="140.66" style="fill:none;stroke:#263238;stroke-linecap:round;stroke-linejoin:round"></line><line x1="336.56" y1="162.34" x2="348.28" y2="162.34" style="fill:none;stroke:#263238;stroke-linecap:round;stroke-linejoin:round"></line><line x1="381.1" y1="98.47" x2="371.14" y2="98.47" style="fill:none;stroke:#263238;stroke-linecap:round;stroke-linejoin:round"></line><line x1="354.8" y1="92.75" x2="354.8" y2="25.65" style="fill:none;stroke:#263238;stroke-linecap:round;stroke-linejoin:round"></line></g><g id="freepik--Plant--inject-8"><path d="M633.52,350.85c2.44,1.07,8.42.94,8.43.94s-1.29-3.92-1.4-4.16c-1.31-2.74-5.46-7.28-8.84-6.82a4,4,0,0,0-3.24,5.05C629,348.2,631.43,349.94,633.52,350.85Z" style="fill:#263238"></path><path d="M694,352.17c.05,0,1.09-4,1.13-4.24.42-3-.55-9.08-3.61-10.57a4,4,0,0,0-5.49,2.43c-.82,2.27.22,5,1.45,6.95C689,349,694,352.17,694,352.17Z" style="fill:#263238"></path><path d="M635.58,368.18c2.54.37,7.88-1.18,8.3-1.3a70.87,70.87,0,0,0,3.24,8.95c.73,1.7,1.53,3.39,2.34,5.08-.49-.71-.93-1.35-1-1.43-2-2.3-7.19-5.58-10.33-4.25a4,4,0,0,0-1.78,5.73c1.16,2.11,3.93,3.15,6.18,3.48s6.86-.89,8.07-1.24c.32.65.63,1.29.95,1.93,1.55,3.08,3.1,6.15,4.54,9.2.5,1.08,1,2.15,1.42,3.23-.43-.63-.8-1.16-.86-1.24-2-2.3-7.19-5.58-10.33-4.24a4,4,0,0,0-1.79,5.73c1.16,2.1,3.93,3.15,6.18,3.47s6.42-.77,7.85-1.17c.44,1.11.89,2.23,1.26,3.33.24.76.53,1.48.73,2.25s.42,1.52.63,2.27c.35,1.46.72,3,1,4.39.22,1,.41,1.94.61,2.89-.49-1.07-1.5-3.16-1.6-3.33-1.62-2.57-6.26-6.6-9.57-5.76a4,4,0,0,0-2.63,5.4c.83,2.26,3.41,3.71,5.58,4.37,2.4.73,7.69.06,8.36,0,.31,1.58.61,3.12.86,4.58.18,1,.33,1.94.48,2.86h2.12c-.19-1-.39-2.1-.61-3.23-.32-1.61-.69-3.32-1.09-5.08a41.53,41.53,0,0,0,4.66-2.19c1.75,1.89,6.22,4.1,6.8,4.38-.61,1.5-1.22,2.95-1.81,4.31l-.8,1.81h2.23c.14-.34.29-.68.43-1,.62-1.51,1.26-3.15,1.9-4.83.64.13,5.88,1.2,8.33.65,2.22-.5,4.9-1.76,5.89-3.95a4,4,0,0,0-2.22-5.57c-3.23-1.09-8.16,2.58-10,5-.11.14-1.09,1.84-1.69,2.92.26-.69.51-1.35.77-2.07.52-1.4,1-2.82,1.5-4.34.23-.75.45-1.5.68-2.26s.4-1.57.6-2.36c.44-1.84.8-3.73,1.11-5.65,1.24.45,5.63,2,7.91,1.82s5.11-1,6.43-3a4,4,0,0,0-1.36-5.84c-3-1.57-8.46,1.31-10.62,3.46-.13.13-1.5,1.85-2.24,2.8.18-1.15.37-2.29.51-3.47.42-3.37.74-6.81,1.07-10.23.1-1.05.22-2.09.33-3.14.44.17,5.62,2.1,8.17,1.92,2.27-.16,5.11-1,6.43-3a4,4,0,0,0-1.36-5.85c-3-1.56-8.46,1.32-10.61,3.47-.17.16-2.14,2.63-2.61,3.28.24-2.3.51-4.59.86-6.84a70.64,70.64,0,0,1,2-9c.2.07,5.61,2.11,8.22,1.93,2.27-.16,5.11-1,6.43-3a4,4,0,0,0-1.36-5.84c-3-1.57-8.46,1.31-10.61,3.46-.15.14-1.65,2-2.35,2.93l-.17-.09a52.34,52.34,0,0,1,3.57-8.54c.78-1.52,1.61-2.93,2.44-4.28,1,.49,5.41,2.65,7.78,2.74s5.19-.42,6.72-2.28a4,4,0,0,0-.71-6c-2.83-1.89-8.55.38-10.93,2.27-.13.11-1.33,1.3-2.19,2.18.39-.6.77-1.23,1.16-1.8,1.42-2.15,2.86-4,4.15-5.68.74-.93,1.42-1.76,2.07-2.53,1.2,0,6-.17,8.13-1.16s4.41-2.77,4.91-5.12a4,4,0,0,0-3.37-5c-3.39-.36-7.42,4.28-8.66,7.06-.1.24-1.35,4.19-1.28,4.19H702c-.64.73-1.32,1.51-2,2.39-1.32,1.63-2.8,3.48-4.28,5.61a73.32,73.32,0,0,0-4.45,7.07,53.38,53.38,0,0,0-3.79,8.55l0,.11c0-1,0-3.79-.06-4-.39-3-2.92-8.62-6.27-9.24a4,4,0,0,0-4.65,3.8c-.2,2.39,1.54,4.79,3.24,6.31,1.91,1.71,7.22,3.36,7.64,3.49a69.92,69.92,0,0,0-2.24,9.26c-.33,1.82-.6,3.67-.85,5.52,0-.86,0-1.63,0-1.74-.39-3-2.92-8.62-6.27-9.24a4,4,0,0,0-4.66,3.79c-.19,2.4,1.55,4.8,3.24,6.32s6.22,3,7.41,3.41l-.27,2.14c-.41,3.42-.8,6.84-1.29,10.17-.17,1.18-.38,2.33-.59,3.48,0-.76,0-1.41,0-1.51-.39-3-2.92-8.62-6.27-9.24a4,4,0,0,0-4.65,3.8c-.2,2.39,1.54,4.8,3.23,6.31s5.78,2.89,7.2,3.35c-.25,1.17-.49,2.35-.79,3.48-.22.76-.37,1.51-.63,2.27s-.49,1.5-.73,2.24c-.51,1.41-1,2.86-1.56,4.22-.37.95-.73,1.85-1.1,2.75.19-1.16.5-3.46.51-3.66a15.81,15.81,0,0,0-2.1-7.61,5.45,5.45,0,0,0-.06-.9,4,4,0,0,0-4.93-3.42c-3.3.88-5.38,6.66-5.54,9.7,0,.18.11,2.14.2,3.37-.16-.72-.32-1.41-.5-2.15-.34-1.46-.73-2.9-1.14-4.45-.22-.75-.45-1.5-.68-2.26s-.53-1.53-.8-2.3c-.65-1.78-1.39-3.56-2.19-5.33,1.28-.3,5.79-1.45,7.6-2.84s3.72-3.65,3.7-6.05a4,4,0,0,0-4.36-4.13c-3.38.37-6.33,5.76-6.94,8.74,0,.19-.24,2.38-.33,3.58-.48-1.06-1-2.12-1.48-3.18-1.52-3-3.14-6.09-4.76-9.12l-1.45-2.8c.45-.11,5.84-1.36,7.87-2.91,1.8-1.39,3.72-3.65,3.7-6.06a4,4,0,0,0-4.36-4.13c-3.38.37-6.32,5.77-6.94,8.75,0,.22-.33,3.37-.36,4.18-1.07-2.06-2.12-4.11-3.06-6.18a72.31,72.31,0,0,1-3.33-8.59c.21-.05,5.85-1.33,7.92-2.93,1.81-1.38,3.72-3.64,3.7-6.05a4,4,0,0,0-4.35-4.13c-3.39.37-6.33,5.77-7,8.75,0,.19-.26,2.59-.33,3.74l-.2,0a52.11,52.11,0,0,1-1.73-9.1c-.19-1.7-.28-3.32-.33-4.91,1.08-.13,6-.78,8-2s4.09-3.22,4.34-5.61a4,4,0,0,0-3.88-4.58c-3.41,0-6.92,5-7.86,7.93,0,.15-.39,1.81-.62,3,0-.71,0-1.45,0-2.14,0-2.58.17-4.94.33-7,.1-1.18.22-2.25.34-3.25,1-.68,4.92-3.47,6.14-5.45s2.15-4.75,1.26-7a4,4,0,0,0-5.55-2.28c-3,1.56-3.82,7.66-3.32,10.66,0,.26,1.19,4.24,1.24,4.2l.06,0c-.14,1-.27,2-.39,3.12-.21,2.09-.42,4.46-.48,7a70.39,70.39,0,0,0,.2,8.36,51.94,51.94,0,0,0,1.55,9.22l0,.11c-.54-.85-2.11-3.15-2.26-3.31-2-2.3-7.19-5.58-10.32-4.25a4,4,0,0,0-1.79,5.73C630.56,366.81,633.33,367.85,635.58,368.18Z" style="fill:#263238"></path></g><g id="freepik--Counter--inject-8"><line x1="704.61" y1="424.31" x2="59.04" y2="424.31" style="fill:none;stroke:#263238;stroke-miterlimit:10"></line><line x1="704.61" y1="440.93" x2="59.04" y2="440.93" style="fill:none;stroke:#263238;stroke-miterlimit:10"></line><line x1="704.61" y1="459.2" x2="59.04" y2="459.2" style="fill:none;stroke:#263238;stroke-miterlimit:10"></line></g><g id="freepik--character-2--inject-8"><path d="M500.78,162.49s6.68-10.19,10.19-10.36,16.35,8.08,20.92,19,2.1,18.46-4,21.79-9.31,4.92-12.47,3.52a16.76,16.76,0,0,1-5.1-3.52s2.46,6,5.45,6.86,4.57,3.16.53,3.16-9.49-5.8-8.79-11.6S500.78,162.49,500.78,162.49Z" style="fill:#263238;stroke:#263238;stroke-miterlimit:10"></path><path d="M421.38,369s-32.87,36.11-34.72,38.19a36.59,36.59,0,0,1-4.63,4.17s-23.84-6.71-28.47-7.18S336.9,414.32,334.12,418a20.21,20.21,0,0,0-3.47,6.48c2.31.7,28.7.7,34.49.7s25.46-2.78,27.08-3.48,38.65-20.59,38.65-20.59l-.93-31.25S425.08,368,421.38,369Z" style="fill:#fff;stroke:#263238;stroke-miterlimit:10"></path><path d="M358.42,408.53s-10.64,7.87-12.73,10.19-4.86,6-4.86,6" style="fill:none;stroke:#263238;stroke-miterlimit:10"></path><path d="M351,406.68s-11.58,8.1-13,11.11-3.24,7.18-3.24,7.18" style="fill:none;stroke:#263238;stroke-miterlimit:10"></path><path d="M364.9,412.93a17.24,17.24,0,0,1-1.62,3.47c-.92,1.39-8.79,3.47-12.73,5.79s0,4.4,6,3.93,14.35,0,18.06-1.85,8.1-6.71,8.1-6.71" style="fill:#fff;stroke:#263238;stroke-miterlimit:10"></path><path d="M426,353.21s-5.56-1.38-6,.7-3.7,14.35-2.31,16,9.72,4.63,10.88,4.4S426,353.21,426,353.21Z" style="fill:#10BF80;stroke:#263238;stroke-miterlimit:10"></path><path d="M457.68,253.9s-10,7.14-19.55,13-13.21,6.6-13.21,10.3-.79,62.88-.79,62.88-1.06,10.57,1.85,20.35,3.7,63.93,3.7,63.93H537.47l-3.7-35.93s12.69-110.17,10-114.66S510,252.84,510,252.84Z" style="fill:#fff;stroke:#263238;stroke-miterlimit:10"></path><path d="M429.68,424.31H537.47l-3.7-35.93s1-8.23,2.27-20.27l-35.56.46s-7.13-39.9-5.28-53.9,12.68-61.56,12.68-61.56l-6.08.79-18,58.13-43.33-4,16.91-51.78-1.85-.26s-19,40.42-24.57,58.12c-3.06,9.74-5.39,19.07-6.87,25.5V340s-1.06,10.57,1.85,20.35S429.68,424.31,429.68,424.31Z" style="fill:#263238;stroke:#263238;stroke-miterlimit:10"></path><path d="M444.22,424.31c.74-22.55,2.84-89.56,1.79-92.73-.72-2.13,3.1-13.1,6.75-22.39l-1-.1c-3,7.65-7.58,20.08-6.67,22.8s-.7,58-1.84,92.42Z" style="fill:#828282"></path><path d="M454.65,333c0-3.49,3.87-16.28,6-23.06l-1-.1c-2.16,6.88-6,19.53-6,23.16s-2,62-3.1,91.34h1C452.6,394.93,454.65,336.63,454.65,333Z" style="fill:#828282"></path><path d="M462.86,335.49c.31-2.48,2.77-17.84,3.92-25l-1-.09c-1.16,7.21-3.6,22.5-3.91,25-.37,2.93-4.23,72.27-5.15,88.94h1C458.64,407.76,462.5,338.35,462.86,335.49Z" style="fill:#828282"></path><polygon points="475.16 311.23 474.17 311.14 466.26 424.31 467.26 424.31 475.16 311.23" style="fill:#828282"></polygon><path d="M454.94,257.35c-1.34,2.87-4.67,10.06-8.5,18.66-6,14.86-14,35.29-18.76,49.5-1.47,5.39-2.66,10.28-3.55,14.13V340a59.12,59.12,0,0,0-.12,7.83c.21-3.49.42-6.18.61-7.77,1.57-12.83,30.18-82,30.47-82.67Z" style="fill:#828282"></path><path d="M439.45,330.18c.27-1.6,3.28-10.42,7.21-21.55l-1-.1c-3.9,11.07-6.89,19.84-7.16,21.48-.64,3.82-2.45,65.18-3.28,94.3h1C437,395.26,438.84,333.88,439.45,330.18Z" style="fill:#828282"></path><path d="M429.3,407.51c.69-27.48,2.07-71,4-78.94,1-4.17,4.78-14.77,9.25-26.73l6.57-20.11c-7.1,18.45-15.24,40.15-16.79,46.6-1.61,6.68-2.83,37.1-3.59,63C429,396.94,429.15,402.55,429.3,407.51Z" style="fill:#828282"></path><polygon points="512.9 368.41 511.9 368.42 514.84 424.31 515.84 424.31 512.9 368.41" style="fill:#828282"></polygon><path d="M478.88,366.63c-.3-15.93,2.42-41.69,3.94-54.7l-1-.09c-1.52,13-4.24,38.83-3.94,54.81.32,17.62,1.18,46.73,1.51,57.66h1C480.06,413.4,479.2,384.26,478.88,366.63Z" style="fill:#828282"></path><polygon points="521.33 368.3 520.33 368.31 525.86 424.31 526.87 424.31 521.33 368.3" style="fill:#828282"></polygon><polygon points="503.76 368.52 502.75 368.54 505.18 424.31 506.18 424.31 503.76 368.52" style="fill:#828282"></polygon><path d="M494.48,329.67a77.54,77.54,0,0,1,.42-8.41,47.71,47.71,0,0,1,.3-6.59c.4-3,1.22-7.65,2.27-13,2.64-17,6.44-36.56,8.8-48.33l-1,.14c-4,20.08-12.05,62.1-11.74,76.23.36,16.55,3.27,79.83,4,94.62h1C497.76,409.6,494.84,346.22,494.48,329.67Z" style="fill:#828282"></path><path d="M488.31,318.29c2.14-10.07,5.55-30.48,8.3-47.6l-2.12,6.89c-2.51,15.36-5.31,31.8-7.16,40.5-3.48,16.38-1,85.95-.24,106.23h1C487.29,404.1,484.85,334.58,488.31,318.29Z" style="fill:#828282"></path><path d="M479.42,269.39s5.15,18,6.55,17.3,26.19-32,26.43-34.14-7.95-12.16-7.95-12.16a20.56,20.56,0,0,0-5.38-1.41c-1.87,0-38.13,6.55-39.06,7.72s-3.51,7.48-5.38,10.53-15.2,16.6-13.57,16.83,19.18-5.84,19.18-5.84l6,18.14s8.48-7.62,9.89-9.49S479.42,269.39,479.42,269.39Z" style="fill:#10BF80;stroke:#263238;stroke-miterlimit:10"></path><path d="M459.51,242.87s1.89,8.1,3.24,18.36,3.51,25.13,3.51,25.13,15.94-23.51,17-24.32,17.29-19.72,17.29-19.72L501.65,215s-7.83,13.78-15.4,20S459.51,242.87,459.51,242.87Z" style="fill:#fff;stroke:#263238;stroke-miterlimit:10"></path><path d="M486.25,235s-7.64,11.72-13.49,17.2-10,9-10,9L460,246.7Z" style="fill:#263238;stroke:#263238;stroke-miterlimit:10"></path><polygon points="482.52 388.38 472.48 385.21 471.95 391.02 482.52 388.38" style="fill:#fff;stroke:#263238;stroke-miterlimit:10"></polygon><polygon points="474.6 378.95 473.71 390.44 471.88 414.24 471.09 424.41 443 424.41 442.21 414.24 440.38 390.44 439.49 378.95 474.6 378.95" style="fill:#10BF80;stroke:#263238;stroke-miterlimit:10"></polygon><rect x="436.37" y="373.54" width="40.7" height="7.55" style="fill:#fff;stroke:#263238;stroke-miterlimit:10"></rect><rect x="440.8" y="370.25" width="32.49" height="3.12" style="fill:#fff;stroke:#263238;stroke-miterlimit:10"></rect><polyline points="473.71 390.44 440.38 390.44 442.21 414.24 471.88 414.24" style="fill:#fff;stroke:#263238;stroke-miterlimit:10"></polyline><path d="M509.47,317.31,529.55,362h34.61s-14.8-67.63-15.33-72.13.8-15.32-2.64-17.17-12.42-4.76-12.42-4.76" style="fill:#fff;stroke:#263238;stroke-miterlimit:10"></path><path d="M516.6,333.16s-9.25-6.07-11.89-11.09" style="fill:#fff;stroke:#263238;stroke-miterlimit:10"></path><path d="M531.13,370.15s-27.48,22.2-30.38,23.25-6.08,2.12-6.08,2.12-9.77-4.76-12.15-7.14-25.63,6.34-25.63,6.34l-8.19,7.4s1.06,2.64,3.17,2.64,9-5.54,9-5.54l10-.53-13.74,9.24-3.7,7.67s2.91,2.9,5.29-.8a21.56,21.56,0,0,1,3.7-4.75l12.92-3.33s-6.39,6.49-7.71,7.28-8,4.23-6.75,5.68c1,1.19,2.07.94,3.65.41S472,418,472,418s6.6.53,8.45.53,8.46-4.23,8.46-4.23l10.83-6.34s39.37-13.21,46.5-17.43,18.5-12.16,18-15.06S531.13,370.15,531.13,370.15Z" style="fill:#fff;stroke:#263238;stroke-miterlimit:10"></path><path d="M472,418s8.19-2.9,11.1-6.07" style="fill:none;stroke:#263238;stroke-miterlimit:10"></path><path d="M525.85,361.17,528,365.4l1.32,5.55s7.93,1.58,15.06,2.9,22.72,5,22.72,5a7.55,7.55,0,0,0,2.12-6.34c-.53-4,0-13.74-1.59-16.38S533.24,354.56,525.85,361.17Z" style="fill:#10BF80;stroke:#263238;stroke-miterlimit:10"></path><path d="M529.68,365.46s7.38-4.61,21.92-4.84" style="fill:none;stroke:#263238;stroke-miterlimit:10"></path><path d="M559.49,365.23c1.22.27,2.37.58,3.41.92" style="fill:none;stroke:#263238;stroke-miterlimit:10"></path><path d="M546.06,363.39s4.85.31,9.92,1.16" style="fill:none;stroke:#263238;stroke-miterlimit:10"></path><path d="M449,218.72a7.56,7.56,0,1,0,7.55,7.56A7.56,7.56,0,0,0,449,218.72Zm0,13.08a5.52,5.52,0,1,1,5.51-5.52A5.52,5.52,0,0,1,449,231.8Z" style="fill:none;stroke:#263238;stroke-miterlimit:10"></path><path d="M442.29,195.42s1.55,21.43,2.8,27.64,14.59,23.92,17.39,25.16a12,12,0,0,0,8.7,0c2.79-.93,21.43-12.74,23.29-17.08S499.13,220,499.13,220s8.07-1.87,9-6.53a41.92,41.92,0,0,0,.31-10.56l.93-11.18s-4.66-18.63-16.77-22.05-29.51,2.48-36.65,8.7S442.29,195.42,442.29,195.42Z" style="fill:#fff;stroke:#263238;stroke-miterlimit:10"></path><path d="M454,195s3,4.22,3.69,7.21" style="fill:none;stroke:#263238;stroke-miterlimit:10"></path><path d="M455.1,218.55a9.65,9.65,0,0,0,7.38,2.63" style="fill:none;stroke:#263238;stroke-miterlimit:10"></path><path d="M459.31,229.79s9.84,2.82,16.17-4.74" style="fill:none;stroke:#263238;stroke-miterlimit:10"></path><path d="M466.69,194.3s8.09-3.69,13.53.18" style="fill:none;stroke:#263238;stroke-miterlimit:10"></path><path d="M452.64,194.12s-4.75-2.1-7.74,1.41" style="fill:none;stroke:#263238;stroke-miterlimit:10"></path><ellipse cx="473.9" cy="203.61" rx="1.41" ry="2.81" style="fill:#263238"></ellipse><path d="M451.41,202.56c0,1.55-.63,2.81-1.41,2.81s-1.41-1.26-1.41-2.81.63-2.81,1.41-2.81S451.41,201,451.41,202.56Z" style="fill:#263238"></path><path d="M504.82,218.72a7.56,7.56,0,1,0,7.56,7.56A7.56,7.56,0,0,0,504.82,218.72Zm0,13.08a5.52,5.52,0,1,1,5.52-5.52A5.52,5.52,0,0,1,504.82,231.8Z" style="fill:#fff;stroke:#263238;stroke-miterlimit:10"></path><path d="M481.11,176.78l-38.82,18.64s-12.42-9-12.42-17.71,20.5-27,39.44-28.26,24.23,2.8,29.51,6.83,22.05,18,19.88,28.27-10.25,18.32-10.25,18.32-.31-5.9-3.73-4.35-2.8,6.22-5.28,5.91-4-5-4-5S479.87,185.79,481.11,176.78Z" style="fill:#263238;stroke:#263238;stroke-miterlimit:10"></path></g><g id="freepik--Device--inject-8"><rect x="504.28" y="333.57" width="130.35" height="90.82" style="fill:#6e6e6e;stroke:#263238;stroke-linecap:round;stroke-linejoin:round"></rect><rect x="510.88" y="345.75" width="117.14" height="78.64" style="fill:#ababab;stroke:#263238;stroke-linecap:round;stroke-linejoin:round"></rect><rect x="550.4" y="385.07" width="38.1" height="39.32" style="fill:#6e6e6e;stroke:#263238;stroke-linecap:round;stroke-linejoin:round"></rect><polygon points="510.88 345.75 504.28 333.57 634.63 333.57 628.02 345.75 510.88 345.75" style="fill:#d1d1d1;stroke:#263238;stroke-linecap:round;stroke-linejoin:round"></polygon></g><g id="freepik--Code--inject-8"><polygon points="368.03 432.41 309.06 432.41 302.85 359.58 361.82 359.58 368.03 432.41" style="fill:#fff;stroke:#263238;stroke-miterlimit:10"></polygon><polygon points="356.08 432.41 297.11 432.41 303.77 346.41 362.74 346.41 356.08 432.41" style="fill:#fff;stroke:#263238;stroke-miterlimit:10"></polygon><path d="M310.13,361.5a2.61,2.61,0,0,1-1.38-.33,1.86,1.86,0,0,1-.78-1,4.05,4.05,0,0,1-.2-1.56l1.49-.28a4,4,0,0,0,.05.95,1.31,1.31,0,0,0,.29.64.85.85,0,0,0,1.18,0,1.16,1.16,0,0,0,.22-.63,1.57,1.57,0,0,0-.2-1,4.21,4.21,0,0,0-.67-.79l-1.1-1a3.19,3.19,0,0,1-.71-.95,2.5,2.5,0,0,1-.2-1.3,2.4,2.4,0,0,1,.78-1.7,2.65,2.65,0,0,1,1.81-.6,2.42,2.42,0,0,1,1.08.2,1.49,1.49,0,0,1,.65.56,2.43,2.43,0,0,1,.33.81,4.24,4.24,0,0,1,.08,1l-1.47.25a3.83,3.83,0,0,0,0-.78,1,1,0,0,0-.22-.54.7.7,0,0,0-.54-.2.76.76,0,0,0-.6.25,1,1,0,0,0-.25.62,1.37,1.37,0,0,0,.13.78,2.8,2.8,0,0,0,.52.62l1.08,1a4.31,4.31,0,0,1,.9,1.13,2.84,2.84,0,0,1,.29,1.58,2.58,2.58,0,0,1-.39,1.18,2.39,2.39,0,0,1-.88.82A2.65,2.65,0,0,1,310.13,361.5Z"></path><path d="M316,361.5a2.6,2.6,0,0,1-1.57-.4,1.91,1.91,0,0,1-.73-1.1,5.14,5.14,0,0,1-.11-1.61l.26-3.33a5.58,5.58,0,0,1,.36-1.66,2.18,2.18,0,0,1,.9-1.08,3,3,0,0,1,1.63-.38,2.87,2.87,0,0,1,1.49.32,1.64,1.64,0,0,1,.71.94,4,4,0,0,1,.12,1.42l-.06.78h-1.64l.06-.8a4.45,4.45,0,0,0,0-.72.83.83,0,0,0-.18-.51.76.76,0,0,0-.6-.19,1,1,0,0,0-.66.2,1.19,1.19,0,0,0-.3.54,5.48,5.48,0,0,0-.11.77l-.32,4.06a3.65,3.65,0,0,0,0,.83.77.77,0,0,0,.25.5.9.9,0,0,0,.57.16.8.8,0,0,0,.62-.2,1.07,1.07,0,0,0,.27-.53,5.45,5.45,0,0,0,.1-.75l.07-.84h1.63l0,.74a4.81,4.81,0,0,1-.34,1.47,2.19,2.19,0,0,1-.84,1A2.94,2.94,0,0,1,316,361.5Z"></path><path d="M319.23,361.37l2.59-9.33h1.82l1.14,9.33h-1.57l-.21-2.15h-1.62l-.55,2.15Zm2.41-3.24h1.26l-.33-3.91Z"></path><path d="M325.67,361.37l.72-9.33h1.19l1.86,5.32.41-5.32h1.41l-.73,9.33H329.4l-1.85-5.57-.43,5.57Z"></path><path d="M334.77,361.37l.73-9.33h1.69l-.3,3.91h1.9l.3-3.91h1.71l-.73,9.33h-1.7l.32-4.21h-1.9l-.32,4.21Z"></path><path d="M341.5,361.37l.72-9.33h3.92l-.09,1.2h-2.21l-.21,2.68h1.74l-.09,1.19h-1.74l-.24,3.09h2.23l-.09,1.17Z"></path><path d="M346.43,361.37l.73-9.33h2.23a4.77,4.77,0,0,1,1.58.22,1.66,1.66,0,0,1,.93.77,2.61,2.61,0,0,1,.23,1.48,4.32,4.32,0,0,1-.19,1,2,2,0,0,1-.41.77,1.81,1.81,0,0,1-.72.49l.95,4.59h-1.71l-.8-4.27h-.78l-.33,4.27Zm2.12-5.34h.53a1.81,1.81,0,0,0,.8-.15.9.9,0,0,0,.46-.46,2.41,2.41,0,0,0,.19-.81,1.61,1.61,0,0,0-.18-1.05,1.06,1.06,0,0,0-1-.36h-.62Z"></path><path d="M352.87,361.37l.73-9.33h3.91l-.09,1.2h-2.21l-.21,2.68h1.74l-.09,1.19h-1.74l-.24,3.09h2.24l-.1,1.17Z"></path><path d="M313.18,426.63l.63-8.07h-1.49l.1-1.26h4.65l-.09,1.26h-1.47l-.62,8.07Z"></path><path d="M319.68,426.76a2.78,2.78,0,0,1-1.55-.37,1.86,1.86,0,0,1-.76-1.06,4.65,4.65,0,0,1-.12-1.63l.27-3.49a4.71,4.71,0,0,1,.38-1.62,2.15,2.15,0,0,1,.92-1,3.13,3.13,0,0,1,1.6-.36,2.87,2.87,0,0,1,1.57.36,1.79,1.79,0,0,1,.76,1,4.32,4.32,0,0,1,.14,1.62l-.27,3.5a4.82,4.82,0,0,1-.39,1.62,2.44,2.44,0,0,1-.92,1.06A3.1,3.1,0,0,1,319.68,426.76Zm.1-1.25a1,1,0,0,0,.64-.19.94.94,0,0,0,.31-.51,3,3,0,0,0,.13-.7l.33-4.3a3.18,3.18,0,0,0,0-.7.78.78,0,0,0-.23-.49.86.86,0,0,0-.61-.18,1,1,0,0,0-.63.18.92.92,0,0,0-.31.49,3.49,3.49,0,0,0-.13.7l-.33,4.3a3.23,3.23,0,0,0,0,.7.81.81,0,0,0,.23.51A.87.87,0,0,0,319.78,425.51Z"></path><path d="M326.44,426.63l.73-9.33h2.74a2.58,2.58,0,0,1,1.34.31,1.65,1.65,0,0,1,.7.91,3.53,3.53,0,0,1,.14,1.43,3.16,3.16,0,0,1-.43,1.47,2,2,0,0,1-.93.81,3.27,3.27,0,0,1-1.34.26h-.92l-.32,4.14Zm2.12-5.34h.65a1.8,1.8,0,0,0,.73-.13.79.79,0,0,0,.39-.43,2.87,2.87,0,0,0,.16-.79,4.29,4.29,0,0,0,0-.82.66.66,0,0,0-.29-.47,1.49,1.49,0,0,0-.77-.15h-.64Z"></path><path d="M331.55,426.63l2.59-9.33H336l1.14,9.33h-1.58l-.2-2.15H333.7l-.55,2.15Zm2.4-3.23h1.27l-.33-3.92Z"></path><path d="M339,426.63l.28-3.56-1.45-5.77h1.59l.87,3.7,1.37-3.7h1.55l-2.31,5.77-.28,3.56Z"></path><path d="M325.77,402.05c.08-1.13.17-2.27.26-3.41h1.69c0-.58.09-1.14.13-1.71h-1.69l.13-1.7h3.41c.05-.58.09-1.14.14-1.7h1.69c0,.57-.08,1.13-.13,1.69h1.71c.09-1.14.17-2.27.26-3.4h5.11c0,.56-.09,1.13-.13,1.7H340c0-.57.09-1.13.13-1.7h-1.69l.13-1.71H335.2c.09-1.14.18-2.26.26-3.39h-5.11c0,.57-.09,1.13-.13,1.7h-3.39c-.09,1.14-.18,2.26-.27,3.41h1.69c0,.57-.09,1.13-.13,1.7h-1.69c-.05.58-.09,1.14-.14,1.7h-1.7c.05-.57.09-1.13.13-1.7h-5.1c0-.58.08-1.13.13-1.7h5.1l1-13.63h1.71c-.13,1.64-.25,3.28-.38,4.92v.18h1.7c.08-1.12.17-2.25.26-3.39h1.7c-.09,1.13-.18,2.26-.26,3.41h1.7c0,.56-.08,1.13-.13,1.7h8.52c0,.58-.09,1.13-.14,1.7h1.71l-.13,1.72h-1.69c0,.58-.09,1.14-.13,1.71H342c-.09,1.13-.18,2.26-.27,3.41h1.71c-.09,1.13-.18,2.26-.27,3.41H341.5c-.09,1.14-.17,2.26-.26,3.41h1.69l-.13,1.7h3.4c-.05.57-.09,1.13-.13,1.7H341l-.27,3.4H339c.05-.55.09-1.11.14-1.69h-3.42c0-.56.09-1.12.14-1.7h-1.7c0-.57.08-1.13.13-1.7h3.39l.13-1.7h-8.5l-.13,1.69h-3.41Zm10.61-5.11c0-.56.09-1.13.13-1.69h-1.69c-.05.57-.09,1.13-.13,1.69h1.69c0,.57-.08,1.13-.13,1.7h3.4c0-.57.08-1.13.13-1.7ZM333,397h-1.69c0,.57-.09,1.13-.13,1.69h1.69C332.88,398.07,332.92,397.52,333,397Zm4.08-8.54h1.68c0-.57.09-1.13.13-1.68h-1.68C337.13,387.29,337.09,387.85,337.05,388.41Z" style="fill:#263238"></path><path d="M311.89,383.3q.47-6,.92-11.9h11.91q-.47,5.94-.92,11.9Zm2.5-10.2-.66,8.5h8.5l.66-8.5Z" style="fill:#263238"></path><path d="M347.65,383.31H335.74c.31-4,.61-7.93.92-11.91h11.91Q348.11,377.34,347.65,383.31Zm-.91-10.21h-8.5l-.66,8.5h8.5Z" style="fill:#263238"></path><path d="M311,395.24h11.91L322,407.15h-11.9Q310.5,401.21,311,395.24ZM321,397h-8.5l-.66,8.5h8.5Z" style="fill:#263238"></path><path d="M327.61,378.21c.09-1.13.18-2.26.27-3.41h-1.7c.09-1.14.17-2.26.26-3.4h8.5c-.09,1.13-.17,2.25-.26,3.39H333c-.05.57-.09,1.13-.14,1.71h1.69c-.09,1.14-.18,2.26-.26,3.4h-1.7c0-.56.09-1.12.13-1.69H331c.05-.57.09-1.13.13-1.7h-1.7c0,.55-.08,1.11-.13,1.69h-1.71Zm2-3.42h1.69c0-.57.09-1.13.13-1.69h-1.68C329.67,373.66,329.63,374.22,329.58,374.79Z" style="fill:#263238"></path><path d="M320.13,386.72c0,.56-.08,1.12-.13,1.7h3.4c0,.57-.08,1.13-.13,1.7h-5.1c-.09,1.14-.17,2.27-.26,3.41H311.1l.27-3.39h1.68c0,.56-.08,1.11-.13,1.68h3.42l.39-5.1h3.4Z" style="fill:#263238"></path><path d="M325.76,402.05c0,.56-.08,1.12-.13,1.7h1.7c0,.57-.09,1.13-.13,1.7h1.7c0,.58-.09,1.14-.13,1.71h-5.09c.13-1.7.26-3.39.39-5.11h1.69Z" style="fill:#263238"></path><path d="M316.73,386.72h-3.4c-.05.57-.09,1.13-.13,1.7h-1.7c.09-1.13.17-2.25.26-3.39h5.1l-.13,1.69Z" style="fill:#263238"></path><path d="M347.12,390.12h-1.69c.09-1.13.17-2.25.26-3.39H344c.05-.58.09-1.14.14-1.71h3.38Z" style="fill:#263238"></path><path d="M320.14,386.72l.13-1.69h3.4c-.05.56-.09,1.11-.14,1.69h-3.39Z" style="fill:#263238"></path><path d="M343.46,393.54l.13-1.7h1.69c0,.56-.08,1.12-.13,1.69h-1.69Z" style="fill:#263238"></path><path d="M345,395.24h1.68c0,.57-.08,1.12-.13,1.69h-1.68C345,396.37,345,395.82,345,395.24Z" style="fill:#263238"></path><path d="M332.33,383.32l.13-1.7h1.69c0,.56-.09,1.12-.13,1.69h-1.69Z" style="fill:#263238"></path><path d="M326,398.64h-1.7c.05-.56.09-1.12.14-1.7h1.69c-.05.57-.09,1.14-.13,1.71Z" style="fill:#263238"></path><path d="M342.93,400.35c.05-.56.09-1.12.13-1.69h1.7c-.05.55-.09,1.11-.13,1.69Z" style="fill:#263238"></path><path d="M342.15,388.43h1.69c0,.56-.08,1.12-.13,1.7H342c0-.57.09-1.14.13-1.71Z" style="fill:#263238"></path><path d="M332.31,405.45h-1.69c0-.56.09-1.12.13-1.68h1.69C332.39,404.32,332.35,404.88,332.31,405.45Z" style="fill:#263238"></path><path d="M335.72,405.46c0,.56-.09,1.12-.13,1.69H333.9c0-.56.08-1.11.13-1.69Z" style="fill:#263238"></path><path d="M345.8,407.16h-1.68c0-.57.08-1.12.13-1.69h1.68C345.89,406,345.85,406.59,345.8,407.16Z" style="fill:#263238"></path><path d="M333.37,391.83h-1.69c0-.56.08-1.12.13-1.69h1.69c0,.56-.09,1.13-.13,1.69Z" style="fill:#263238"></path><path d="M320.65,379.9h-5.09c.13-1.7.26-3.39.4-5.09h5.09C320.92,376.5,320.79,378.19,320.65,379.9Z" style="fill:#263238"></path><path d="M339.41,379.9l.39-5.1h5.1l-.4,5.1Z" style="fill:#263238"></path><path d="M313.72,403.75l.39-5.1h5.09l-.39,5.1Z" style="fill:#263238"></path><polyline points="318.07 367.36 310.62 367.36 309.98 375.59" style="fill:none;stroke:#10BF80;stroke-miterlimit:10"></polyline><polyline points="345.19 367.36 352.65 367.36 352.01 375.59" style="fill:none;stroke:#10BF80;stroke-miterlimit:10"></polyline><polyline points="314.72 410.69 307.26 410.69 307.9 402.46" style="fill:none;stroke:#10BF80;stroke-miterlimit:10"></polyline><polyline points="341.84 410.69 349.29 410.69 349.93 402.46" style="fill:none;stroke:#10BF80;stroke-miterlimit:10"></polyline></g><g id="freepik--character-1--inject-8"><path d="M239.26,342.18s8-9.26,9.42-9.95,20.15-9.85,20.15-9.85l-5.22,26.51-28.68,13.33Z" style="fill:#fff;stroke:#263238;stroke-miterlimit:10"></path><rect x="266.24" y="291.16" width="33.54" height="69.57" rx="3.82" transform="translate(63.98 -46.03) rotate(10.48)" style="fill:#fff;stroke:#263238;stroke-miterlimit:10"></rect><path d="M279.82,331.09l.45-2.38h0l1.07.21c.08-.41.15-.8.23-1.19l-1.07-.21h0c.07-.4.15-.8.22-1.2l2.16.41c.08-.4.15-.79.22-1.18l1.08.2c-.07.4-.15.79-.22,1.18l1.08.2.44-2.37h0l.14,0,3.1.58c-.08.4-.15.79-.23,1.19l1.07.2c.08-.4.15-.79.23-1.18l-1.08-.2c.08-.4.15-.79.23-1.2l-2.16-.41.45-2.37L284,320.8c-.08.4-.15.79-.23,1.19l-2.14-.41-.45,2.38,1.06.2c-.07.4-.15.79-.22,1.19l-1.07-.2c-.08.4-.15.79-.23,1.19l-1.07-.21c.07-.4.14-.79.22-1.19l-3.23-.61c.07-.4.15-.79.22-1.19l3.23.61,1.8-9.51,1.08.2h0c-.22,1.14-.43,2.29-.65,3.43l0,.13,1.07.2.45-2.36,1.08.2-.45,2.38,1.08.2h0c-.08.39-.15.78-.23,1.19l5.39,1c-.07.4-.15.79-.22,1.18l1.08.21c-.08.41-.15.8-.23,1.2h0l-1.07-.2c-.08.4-.15.79-.22,1.19l1.07.21h0l-.45,2.38,1.08.21h0c-.15.78-.29,1.57-.45,2.37l-1.07-.2-.45,2.38,1.08.21h0c-.07.4-.14.79-.22,1.19l2.15.41c-.07.4-.15.79-.22,1.19l-3.23-.62-.45,2.38-1.08-.2c.08-.39.15-.78.23-1.19l-2.16-.41h0c.07-.39.15-.79.22-1.19l-1.07-.2c.08-.4.15-.79.22-1.19l2.15.4c.08-.4.15-.79.22-1.18l-5.37-1c-.08.39-.15.78-.23,1.18l-2.16-.41Zm7.14-2.34c.08-.39.15-.79.23-1.18l-1.07-.21c-.08.4-.15.79-.23,1.18l1.08.21c-.08.39-.15.79-.23,1.18l2.15.41c.07-.4.15-.79.22-1.18Zm-2.16-.4-1.06-.21c-.08.4-.15.79-.23,1.18l1.07.2C284.65,329.13,284.73,328.74,284.8,328.35Zm3.29-5.55,1.07.2c.08-.4.15-.79.22-1.18l-1.06-.2C288.24,322,288.17,322.4,288.09,322.8Z" style="fill:#263238"></path><path d="M272.6,316.16q.79-4.16,1.57-8.31l7.54,1.43c-.53,2.77-1,5.53-1.58,8.31Zm2.43-6.92c-.38,2-.75,4-1.12,5.94l5.37,1c.38-2,.75-4,1.13-5.94Z" style="fill:#263238"></path><path d="M295.23,320.45,287.69,319c.53-2.78,1.05-5.54,1.57-8.32l7.54,1.43C296.27,314.91,295.75,317.67,295.23,320.45Zm.27-7.33-5.38-1q-.57,3-1.12,5.94l5.38,1Q294.94,316.09,295.5,313.12Z" style="fill:#263238"></path><path d="M271,324.5l7.53,1.43c-.52,2.77-1.05,5.54-1.57,8.31l-7.54-1.42C270,330.05,270.5,327.28,271,324.5Zm6.23,2.42-5.38-1q-.57,3-1.12,5.93l5.37,1C276.51,330.87,276.88,328.9,277.26,326.92Z" style="fill:#263238"></path><path d="M283,314.44l.45-2.38-1.07-.2c.15-.8.3-1.58.45-2.37l5.38,1-.45,2.37-1.07-.2c-.07.4-.15.79-.22,1.19l1.06.2-.45,2.38-1.07-.21c.08-.39.15-.78.23-1.18l-1.08-.2.22-1.19-1.07-.2c-.08.39-.15.78-.23,1.18l-1.08-.2Zm1.53-2.18,1.07.2c.08-.4.15-.79.22-1.18l-1.06-.2Z" style="fill:#263238"></path><path d="M277.53,319.57c-.07.39-.15.78-.22,1.19l2.15.41c-.07.39-.15.78-.22,1.18l-3.23-.61-.45,2.38-4.31-.82.45-2.36,1.07.2-.22,1.17,2.16.41c.22-1.18.45-2.37.67-3.56h0l2.16.41Z" style="fill:#263238"></path><path d="M279.82,331.09c-.07.39-.15.79-.22,1.19l1.07.2c-.07.4-.15.79-.22,1.19l1.07.2c-.07.41-.15.8-.22,1.19l-3.22-.61c.22-1.18.44-2.36.67-3.56l1.07.2Z" style="fill:#263238"></path><path d="M275.38,319.16l-2.15-.41c-.08.4-.15.79-.23,1.19l-1.07-.21.45-2.36,3.22.61c-.07.39-.15.79-.22,1.18Z" style="fill:#263238"></path><path d="M294.33,325.21l-1.07-.2c.15-.79.29-1.58.44-2.37l-1.07-.21c.08-.4.15-.79.22-1.18l2.15.4C294.77,322.84,294.55,324,294.33,325.21Z" style="fill:#263238"></path><path d="M277.54,319.57c.07-.39.14-.78.22-1.18l2.15.41c-.08.38-.15.78-.23,1.18l-2.15-.41Z" style="fill:#263238"></path><path d="M291.73,327.19c.07-.39.14-.79.22-1.19l1.07.21c-.07.39-.15.78-.22,1.18l-1.08-.2Z" style="fill:#263238"></path><path d="M292.58,328.59l1.07.2c-.08.39-.15.78-.22,1.18l-1.07-.21C292.43,329.37,292.51,329,292.58,328.59Z" style="fill:#263238"></path><path d="M285.53,318.62l.22-1.18,1.08.2c-.08.39-.15.78-.23,1.18l-1.07-.2Z" style="fill:#263238"></path><path d="M280.27,328.71l-1.07-.2c.07-.4.15-.79.22-1.19l1.08.21h0c-.08.4-.16.8-.23,1.19Z" style="fill:#263238"></path><path d="M290.83,332c.07-.4.14-.79.22-1.19l1.07.21c-.07.38-.15.77-.22,1.18l-1.08-.21Z" style="fill:#263238"></path><path d="M291.32,323.42l1.07.2c-.07.39-.14.78-.22,1.19l-1.07-.21h0l.22-1.2Z" style="fill:#263238"></path><path d="M283.68,334.28l-1.07-.2c.07-.39.15-.78.22-1.18l1.07.2C283.83,333.49,283.75,333.88,283.68,334.28Z" style="fill:#263238"></path><path d="M285.84,334.69c-.08.4-.15.79-.23,1.19l-1.07-.2c.08-.39.15-.78.23-1.19l1.07.21Z" style="fill:#263238"></path><path d="M292.08,337.11,291,336.9c.07-.39.15-.78.22-1.17l1.07.2C292.22,336.32,292.15,336.71,292.08,337.11Z" style="fill:#263238"></path><path d="M285.48,324.77l-1.07-.2c.08-.4.15-.79.23-1.18l1.07.2c-.08.39-.15.79-.23,1.18Z" style="fill:#263238"></path><path d="M278.43,314.81l-3.22-.61c.22-1.19.44-2.37.67-3.56l3.22.61C278.88,312.43,278.65,313.62,278.43,314.81Z" style="fill:#263238"></path><path d="M290.3,317.05c.22-1.19.45-2.37.67-3.55l3.22.61c-.22,1.18-.45,2.36-.67,3.55Z" style="fill:#263238"></path><path d="M272.06,330.85c.22-1.19.44-2.37.67-3.56l3.22.61c-.22,1.18-.45,2.37-.67,3.56Z" style="fill:#263238"></path><polyline points="277.84 305.63 273.12 304.73 272.03 310.48" style="fill:none;stroke:#10BF80;stroke-miterlimit:10"></polyline><polyline points="295 308.88 299.71 309.77 298.63 315.51" style="fill:none;stroke:#10BF80;stroke-miterlimit:10"></polyline><polyline points="272.11 335.88 267.4 334.98 268.48 329.24" style="fill:none;stroke:#10BF80;stroke-miterlimit:10"></polyline><polyline points="289.27 339.13 293.99 340.02 295.08 334.28" style="fill:none;stroke:#10BF80;stroke-miterlimit:10"></polyline><path d="M304.25,303.34l.88-4.79a3.8,3.8,0,0,0-3.06-4.45l-25.47-4.71a3.82,3.82,0,0,0-4.45,3.06l-.89,4.79Z" style="fill:#263238;stroke:#263238;stroke-miterlimit:10"></path><path d="M261.44,350.39l-.55,2.95A3.83,3.83,0,0,0,264,357.8l25.47,4.71a3.82,3.82,0,0,0,4.45-3.07l.55-3Z" style="fill:#263238;stroke:#263238;stroke-miterlimit:10"></path><path d="M253.16,338.75s8.92,1.33,11.67,1.84,13.78-2.82,14.72-1.07-.43,4-3,5.77-13,3.6-13,3.6a18.57,18.57,0,0,1-9.64,7.7c-6.37,2-16.42,1.7-16.42,1.7" style="fill:#fff;stroke:#263238;stroke-miterlimit:10"></path><path d="M107.56,459.2h150c.36-4.89,1.65-30.76-7.84-65.93-10.56-39.14-10.56-77-10.56-77s7.15-16.15-1.86-29.51-20.85-17.15-20.85-17.15-64.87-20.12-77-18.57c0,0-30.44,25.78-32.92,27.34s-9.32,12.11-9.32,18.32,12.11,93.49,13.67,104.67C112.32,411.64,108.22,452.77,107.56,459.2Z" style="fill:#10BF80;stroke:#263238;stroke-miterlimit:10"></path><path d="M128.28,306.3s12.11,47.21,24.85,64.29" style="fill:none;stroke:#263238;stroke-miterlimit:10"></path><path d="M141,354.75s7.76,16.15,16.46,23.61" style="fill:none;stroke:#263238;stroke-miterlimit:10"></path><path d="M250.24,171s-.31,20-2.21,22.41-4.88,6.07-4.71,8.08,4.45,14.43,4.67,16.16-6.94,5.1-6.94,5.1-11.7,23.33-12.9,25.07-4,1.47-7.21.82-9-4.34-9-4.34l-11.27,21.16s-18.18-14.91-26.37-20.49S156,233.67,156,233.67l10.57-14.81s4.93-6.35,6.23-17.09,4.16-25.12,26.67-36.14S244.11,166.37,250.24,171Z" style="fill:#fff;stroke:#263238;stroke-miterlimit:10"></path><path d="M233.7,170.49s1.15,9.82-.48,12.32-15.57,4.51-15.62,6.19,0,10.14-2.54,9.93-3.15.21-3.85-.49.7-7.76-5.16-6.67-11.28,9.88-11.17,15,4.73,8.83,4.73,8.83-.49,2.45-10.14,5.6-21.05.88-22.95-2.32-7.51-44.37-8.7-55.32,7.9-31.14,23.79-35.87,34.55-2.13,34.55-2.13,9.6-5.7,18-2.34,10.31,13.33,10.31,13.33,15.62-.55,19.81,9.59,1.09,21.37-4.38,26.2-14.92-.15-19.1-1.83A8.38,8.38,0,0,0,233.7,170.49Z" style="fill:#263238;stroke:#263238;stroke-miterlimit:10"></path><path d="M248,193.38s-4.56-5.43-9.6.06" style="fill:none;stroke:#263238;stroke-miterlimit:10"></path><path d="M241,200.57c-.32,1.57-1.24,2.71-2.06,2.55s-1.24-1.58-.93-3.15,1.24-2.71,2.06-2.55S241.27,199,241,200.57Z" style="fill:#263238"></path><path d="M234,228.37s-3.63,1.25-6.62-3.58" style="fill:none;stroke:#263238;stroke-miterlimit:10"></path><path d="M211.93,244.27a29.19,29.19,0,0,1-5.75-7.91c-2-4.34-4-8.41-4-8.41s.22,15.84.82,19.91a53.55,53.55,0,0,0,2.23,8.62Z" style="fill:#263238;stroke:#263238;stroke-miterlimit:10"></path><path d="M148.14,239.71s3.59-6.64,5.53-6.91,32.63,7.46,39.55,11.34,13.83,13.55,13.83,13.55Z" style="fill:#fff;stroke:#263238;stroke-miterlimit:10"></path><path d="M147,237.22s17.42,4.43,35.95,10,26.28,11.34,27.39,13,6.08,9.4,6.08,9.4-15.49-3-44.53-9.68-34.85-7.47-34.85-7.47S145.65,239.43,147,237.22Z" style="fill:#10BF80;stroke:#263238;stroke-miterlimit:10"></path><path d="M180.15,316.55s11.18,64,12.11,71.44-.93,27,0,42.24a153.61,153.61,0,0,0,4.91,29h55c-.46-2.58-5-28.44-5.86-41.71-.94-14-1.25-67.09-3.11-80.13S242,316.24,242,316.24s4-20.81-.62-30.75-23.3-13-27-13.36" style="fill:#10BF80;stroke:#263238;stroke-miterlimit:10"></path><path d="M206.47,281.43S191,293.06,187.09,316.32" style="fill:#10BF80;stroke:#263238;stroke-miterlimit:10"></path></g></svg>
